<svg xmlns="http://www.w3.org/2000/svg" viewBox="0 0 300 300">
<defs><radialGradient id="p7_r1" cx="50%" cy="50%" r="50%"><stop offset="0%" stop-color="#d49d69"/><stop offset="100%" stop-color="#7d5029"/></radialGradient><radialGradient id="p7_r2" cx="50%" cy="50%" r="50%"><stop offset="0%" stop-color="#d49d69"/><stop offset="100%" stop-color="#7d5029"/></radialGradient><radialGradient id="p7_r3" cx="50%" cy="50%" r="50%"><stop offset="0%" stop-color="#d49d69"/><stop offset="100%" stop-color="#7d5029"/></radialGradient><radialGradient id="p7_r4" cx="50%" cy="50%" r="50%"><stop offset="0%" stop-color="#d49d69"/><stop offset="100%" stop-color="#7d5029"/></radialGradient><linearGradient id="p7_l5" x1="0" y1="0" x2="1" y2="0"><stop offset="0%" stop-color="#7d5029"/><stop offset="22%" stop-color="#b98350"/><stop offset="50%" stop-color="#dcae70"/><stop offset="78%" stop-color="#b98350"/><stop offset="100%" stop-color="#7d5029"/></linearGradient><linearGradient id="p7_l6" x1="0" y1="0" x2="1" y2="0"><stop offset="0%" stop-color="#7d5029"/><stop offset="22%" stop-color="#b98350"/><stop offset="50%" stop-color="#dcae70"/><stop offset="78%" stop-color="#b98350"/><stop offset="100%" stop-color="#7d5029"/></linearGradient><linearGradient id="p7_l7" x1="0" y1="0" x2="1" y2="0"><stop offset="0%" stop-color="#7d5029"/><stop offset="22%" stop-color="#b98350"/><stop offset="50%" stop-color="#dcae70"/><stop offset="78%" stop-color="#b98350"/><stop offset="100%" stop-color="#7d5029"/></linearGradient><linearGradient id="p7_l8" x1="0" y1="0" x2="1" y2="0"><stop offset="0%" stop-color="#7d5029"/><stop offset="22%" stop-color="#b98350"/><stop offset="50%" stop-color="#dcae70"/><stop offset="78%" stop-color="#b98350"/><stop offset="100%" stop-color="#7d5029"/></linearGradient><linearGradient id="p7_l9" x1="0" y1="0" x2="1" y2="0"><stop offset="0%" stop-color="#7d5029"/><stop offset="22%" stop-color="#b98350"/><stop offset="50%" stop-color="#dcae70"/><stop offset="78%" stop-color="#b98350"/><stop offset="100%" stop-color="#7d5029"/></linearGradient><linearGradient id="p7_l10" x1="0" y1="0" x2="1" y2="0"><stop offset="0%" stop-color="#7d5029"/><stop offset="22%" stop-color="#b98350"/><stop offset="50%" stop-color="#dcae70"/><stop offset="78%" stop-color="#b98350"/><stop offset="100%" stop-color="#7d5029"/></linearGradient><linearGradient id="p7_l11" x1="0" y1="0" x2="1" y2="0"><stop offset="0%" stop-color="#7d5029"/><stop offset="22%" stop-color="#b98350"/><stop offset="50%" stop-color="#dcae70"/><stop offset="78%" stop-color="#b98350"/><stop offset="100%" stop-color="#7d5029"/></linearGradient><linearGradient id="p7_l12" x1="0" y1="0" x2="1" y2="0"><stop offset="0%" stop-color="#7d5029"/><stop offset="22%" stop-color="#b98350"/><stop offset="50%" stop-color="#dcae70"/><stop offset="78%" stop-color="#b98350"/><stop offset="100%" stop-color="#7d5029"/></linearGradient><linearGradient id="p7_l13" x1="0" y1="0" x2="1" y2="0"><stop offset="0%" stop-color="#7d5029"/><stop offset="22%" stop-color="#b98350"/><stop offset="50%" stop-color="#dcae70"/><stop offset="78%" stop-color="#b98350"/><stop offset="100%" stop-color="#7d5029"/></linearGradient><linearGradient id="p7_l14" x1="0" y1="0" x2="0" y2="1"><stop offset="0%" stop-color="#7d5029"/><stop offset="22%" stop-color="#b98350"/><stop offset="50%" stop-color="#dcae70"/><stop offset="78%" stop-color="#b98350"/><stop offset="100%" stop-color="#7d5029"/></linearGradient><linearGradient id="p7_l15" x1="0" y1="0" x2="0" y2="1"><stop offset="0%" stop-color="#7d5029"/><stop offset="22%" stop-color="#b98350"/><stop offset="50%" stop-color="#dcae70"/><stop offset="78%" stop-color="#b98350"/><stop offset="100%" stop-color="#7d5029"/></linearGradient><linearGradient id="p7_l16" x1="0" y1="0" x2="1" y2="0"><stop offset="0%" stop-color="#7d5029"/><stop offset="22%" stop-color="#b98350"/><stop offset="50%" stop-color="#dcae70"/><stop offset="78%" stop-color="#b98350"/><stop offset="100%" stop-color="#7d5029"/></linearGradient><linearGradient id="p7_l17" x1="0" y1="0" x2="1" y2="0"><stop offset="0%" stop-color="#7d5029"/><stop offset="22%" stop-color="#b98350"/><stop offset="50%" stop-color="#dcae70"/><stop offset="78%" stop-color="#b98350"/><stop offset="100%" stop-color="#7d5029"/></linearGradient><linearGradient id="p7_l18" x1="0" y1="0" x2="0" y2="1"><stop offset="0%" stop-color="#7d5029"/><stop offset="22%" stop-color="#b98350"/><stop offset="50%" stop-color="#dcae70"/><stop offset="78%" stop-color="#b98350"/><stop offset="100%" stop-color="#7d5029"/></linearGradient><linearGradient id="p7_l19" x1="0" y1="0" x2="0" y2="1"><stop offset="0%" stop-color="#7d5029"/><stop offset="22%" stop-color="#b98350"/><stop offset="50%" stop-color="#dcae70"/><stop offset="78%" stop-color="#b98350"/><stop offset="100%" stop-color="#7d5029"/></linearGradient><linearGradient id="p7_l20" x1="0" y1="0" x2="0" y2="1"><stop offset="0%" stop-color="#7d5029"/><stop offset="22%" stop-color="#b98350"/><stop offset="50%" stop-color="#dcae70"/><stop offset="78%" stop-color="#b98350"/><stop offset="100%" stop-color="#7d5029"/></linearGradient><linearGradient id="p7_l21" x1="0" y1="0" x2="0" y2="1"><stop offset="0%" stop-color="#7d5029"/><stop offset="22%" stop-color="#b98350"/><stop offset="50%" stop-color="#dcae70"/><stop offset="78%" stop-color="#b98350"/><stop offset="100%" stop-color="#7d5029"/></linearGradient><linearGradient id="p7_l22" x1="0" y1="0" x2="0" y2="1"><stop offset="0%" stop-color="#7d5029"/><stop offset="22%" stop-color="#b98350"/><stop offset="50%" stop-color="#dcae70"/><stop offset="78%" stop-color="#b98350"/><stop offset="100%" stop-color="#7d5029"/></linearGradient></defs>
<rect x="8.8" y="8.8" width="18.4" height="18.4" rx="3.2" fill="#3f2510" opacity="0.55"/>
<rect x="10.0" y="10.0" width="16.0" height="16.0" rx="2" fill="url(#p7_r1)"/>
<rect x="272.8" y="8.8" width="18.4" height="18.4" rx="3.2" fill="#3f2510" opacity="0.55"/>
<rect x="274.0" y="10.0" width="16.0" height="16.0" rx="2" fill="url(#p7_r2)"/>
<rect x="8.8" y="272.8" width="18.4" height="18.4" rx="3.2" fill="#3f2510" opacity="0.55"/>
<rect x="10.0" y="274.0" width="16.0" height="16.0" rx="2" fill="url(#p7_r3)"/>
<rect x="272.8" y="272.8" width="18.4" height="18.4" rx="3.2" fill="#3f2510" opacity="0.55"/>
<rect x="274.0" y="274.0" width="16.0" height="16.0" rx="2" fill="url(#p7_r4)"/>
<rect x="25.0" y="-1.0" width="10.0" height="302.0" rx="2.5" fill="#3f2510" opacity="0.55"/>
<rect x="26.0" y="0.0" width="8.0" height="300.0" rx="1.5" fill="url(#p7_l5)"/>
<path d="M 28.8 1.5 L 27.9 20.1 L 28.4 38.6 L 28.2 57.2 L 28.3 75.8 L 28.8 94.3 L 28.4 112.9 L 28.8 131.4 L 27.5 150.0 L 28.8 168.6 L 27.5 187.1 L 27.8 205.7 L 28.2 224.2 L 28.6 242.8 L 28.6 261.4 L 28.8 279.9 L 27.9 298.5" fill="none" stroke="#8f5c2e" stroke-width="0.55" stroke-linecap="round" opacity="0.35"/>
<path d="M 31.5 1.5 L 31.4 20.1 L 31.2 38.6 L 31.3 57.2 L 30.4 75.8 L 31.1 94.3 L 31.3 112.9 L 30.2 131.4 L 30.4 150.0 L 31.0 168.6 L 30.8 187.1 L 30.7 205.7 L 30.7 224.2 L 31.5 242.8 L 31.4 261.4 L 30.3 279.9 L 30.4 298.5" fill="none" stroke="#8f5c2e" stroke-width="0.55" stroke-linecap="round" opacity="0.35"/>
<line x1="30.0" y1="1.5" x2="30.0" y2="298.5" stroke="#dcae70" stroke-width="0.6" stroke-linecap="round" opacity="0.35"/>
<rect x="55.0" y="-1.0" width="10.0" height="302.0" rx="2.5" fill="#3f2510" opacity="0.55"/>
<rect x="56.0" y="0.0" width="8.0" height="300.0" rx="1.5" fill="url(#p7_l6)"/>
<path d="M 58.3 1.5 L 58.8 20.1 L 57.9 38.6 L 58.5 57.2 L 58.7 75.8 L 58.8 94.3 L 57.9 112.9 L 58.3 131.4 L 59.1 150.0 L 59.1 168.6 L 58.6 187.1 L 58.6 205.7 L 57.9 224.2 L 58.4 242.8 L 58.7 261.4 L 58.4 279.9 L 58.1 298.5" fill="none" stroke="#8f5c2e" stroke-width="0.55" stroke-linecap="round" opacity="0.35"/>
<path d="M 62.5 1.5 L 61.5 20.1 L 61.7 38.6 L 61.9 57.2 L 62.3 75.8 L 61.9 94.3 L 61.5 112.9 L 61.6 131.4 L 61.3 150.0 L 61.3 168.6 L 62.4 187.1 L 61.2 205.7 L 61.5 224.2 L 62.2 242.8 L 61.7 261.4 L 61.2 279.9 L 62.3 298.5" fill="none" stroke="#8f5c2e" stroke-width="0.55" stroke-linecap="round" opacity="0.35"/>
<ellipse cx="59.1" cy="131.9" rx="2.5" ry="1.8" fill="#7d5029" opacity="0.7"/>
<ellipse cx="59.1" cy="131.9" rx="1.2" ry="0.9" fill="#3f2510" opacity="0.6"/>
<line x1="60.0" y1="1.5" x2="60.0" y2="298.5" stroke="#dcae70" stroke-width="0.6" stroke-linecap="round" opacity="0.35"/>
<rect x="85.0" y="-1.0" width="10.0" height="302.0" rx="2.5" fill="#3f2510" opacity="0.55"/>
<rect x="86.0" y="0.0" width="8.0" height="300.0" rx="1.5" fill="url(#p7_l7)"/>
<path d="M 87.7 1.5 L 88.2 20.1 L 87.7 38.6 L 88.6 57.2 L 88.8 75.8 L 87.9 94.3 L 88.9 112.9 L 87.7 131.4 L 88.5 150.0 L 88.6 168.6 L 88.4 187.1 L 88.7 205.7 L 87.8 224.2 L 87.9 242.8 L 88.8 261.4 L 87.8 279.9 L 87.6 298.5" fill="none" stroke="#8f5c2e" stroke-width="0.55" stroke-linecap="round" opacity="0.35"/>
<path d="M 92.3 1.5 L 92.2 20.1 L 91.1 38.6 L 92.3 57.2 L 92.0 75.8 L 92.3 94.3 L 92.0 112.9 L 91.6 131.4 L 91.7 150.0 L 92.2 168.6 L 92.2 187.1 L 92.0 205.7 L 92.2 224.2 L 92.1 242.8 L 91.1 261.4 L 92.3 279.9 L 91.1 298.5" fill="none" stroke="#8f5c2e" stroke-width="0.55" stroke-linecap="round" opacity="0.35"/>
<ellipse cx="90.2" cy="114.9" rx="2.5" ry="1.8" fill="#7d5029" opacity="0.7"/>
<ellipse cx="90.2" cy="114.9" rx="1.2" ry="0.9" fill="#3f2510" opacity="0.6"/>
<line x1="90.0" y1="1.5" x2="90.0" y2="298.5" stroke="#dcae70" stroke-width="0.6" stroke-linecap="round" opacity="0.35"/>
<rect x="115.0" y="-1.0" width="10.0" height="302.0" rx="2.5" fill="#3f2510" opacity="0.55"/>
<rect x="116.0" y="0.0" width="8.0" height="300.0" rx="1.5" fill="url(#p7_l8)"/>
<path d="M 120.1 1.5 L 119.4 20.1 L 119.1 38.6 L 118.8 57.2 L 118.8 75.8 L 119.7 94.3 L 119.1 112.9 L 119.1 131.4 L 119.4 150.0 L 119.4 168.6 L 120.0 187.1 L 119.5 205.7 L 119.1 224.2 L 119.6 242.8 L 119.4 261.4 L 119.9 279.9 L 118.8 298.5" fill="none" stroke="#8f5c2e" stroke-width="0.55" stroke-linecap="round" opacity="0.35"/>
<path d="M 122.5 1.5 L 122.5 20.1 L 121.4 38.6 L 122.5 57.2 L 121.2 75.8 L 122.2 94.3 L 121.3 112.9 L 122.2 131.4 L 122.3 150.0 L 121.2 168.6 L 121.5 187.1 L 121.9 205.7 L 122.5 224.2 L 122.0 242.8 L 121.4 261.4 L 121.6 279.9 L 122.5 298.5" fill="none" stroke="#8f5c2e" stroke-width="0.55" stroke-linecap="round" opacity="0.35"/>
<ellipse cx="120.0" cy="82.8" rx="2.5" ry="1.8" fill="#7d5029" opacity="0.7"/>
<ellipse cx="120.0" cy="82.8" rx="1.2" ry="0.9" fill="#3f2510" opacity="0.6"/>
<line x1="120.0" y1="1.5" x2="120.0" y2="298.5" stroke="#dcae70" stroke-width="0.6" stroke-linecap="round" opacity="0.35"/>
<rect x="145.0" y="-1.0" width="10.0" height="302.0" rx="2.5" fill="#3f2510" opacity="0.55"/>
<rect x="146.0" y="0.0" width="8.0" height="300.0" rx="1.5" fill="url(#p7_l9)"/>
<path d="M 147.8 1.5 L 149.0 20.1 L 148.6 38.6 L 148.5 57.2 L 149.0 75.8 L 148.4 94.3 L 149.0 112.9 L 147.8 131.4 L 148.7 150.0 L 148.9 168.6 L 148.2 187.1 L 148.3 205.7 L 148.8 224.2 L 148.8 242.8 L 148.5 261.4 L 148.8 279.9 L 147.8 298.5" fill="none" stroke="#8f5c2e" stroke-width="0.55" stroke-linecap="round" opacity="0.35"/>
<path d="M 150.5 1.5 L 151.3 20.1 L 151.6 38.6 L 151.2 57.2 L 150.5 75.8 L 151.6 94.3 L 151.5 112.9 L 150.6 131.4 L 150.6 150.0 L 150.5 168.6 L 150.8 187.1 L 151.0 205.7 L 151.0 224.2 L 151.1 242.8 L 151.4 261.4 L 151.1 279.9 L 150.9 298.5" fill="none" stroke="#8f5c2e" stroke-width="0.55" stroke-linecap="round" opacity="0.35"/>
<line x1="150.0" y1="1.5" x2="150.0" y2="298.5" stroke="#dcae70" stroke-width="0.6" stroke-linecap="round" opacity="0.35"/>
<rect x="175.0" y="-1.0" width="10.0" height="302.0" rx="2.5" fill="#3f2510" opacity="0.55"/>
<rect x="176.0" y="0.0" width="8.0" height="300.0" rx="1.5" fill="url(#p7_l10)"/>
<path d="M 178.6 1.5 L 179.4 20.1 L 179.0 38.6 L 179.3 57.2 L 178.8 75.8 L 178.1 94.3 L 179.3 112.9 L 178.7 131.4 L 178.6 150.0 L 178.9 168.6 L 179.4 187.1 L 178.7 205.7 L 178.3 224.2 L 178.4 242.8 L 178.4 261.4 L 178.2 279.9 L 179.2 298.5" fill="none" stroke="#8f5c2e" stroke-width="0.55" stroke-linecap="round" opacity="0.35"/>
<path d="M 182.5 1.5 L 181.8 20.1 L 182.3 38.6 L 182.1 57.2 L 182.1 75.8 L 181.2 94.3 L 181.7 112.9 L 181.3 131.4 L 181.5 150.0 L 182.1 168.6 L 182.3 187.1 L 181.2 205.7 L 182.2 224.2 L 182.2 242.8 L 181.5 261.4 L 181.9 279.9 L 181.5 298.5" fill="none" stroke="#8f5c2e" stroke-width="0.55" stroke-linecap="round" opacity="0.35"/>
<ellipse cx="180.3" cy="194.4" rx="2.5" ry="1.8" fill="#7d5029" opacity="0.7"/>
<ellipse cx="180.3" cy="194.4" rx="1.2" ry="0.9" fill="#3f2510" opacity="0.6"/>
<line x1="180.0" y1="1.5" x2="180.0" y2="298.5" stroke="#dcae70" stroke-width="0.6" stroke-linecap="round" opacity="0.35"/>
<rect x="205.0" y="-1.0" width="10.0" height="302.0" rx="2.5" fill="#3f2510" opacity="0.55"/>
<rect x="206.0" y="0.0" width="8.0" height="300.0" rx="1.5" fill="url(#p7_l11)"/>
<path d="M 208.4 1.5 L 209.0 20.1 L 208.6 38.6 L 208.3 57.2 L 209.3 75.8 L 208.4 94.3 L 209.2 112.9 L 208.4 131.4 L 208.4 150.0 L 209.2 168.6 L 208.8 187.1 L 208.4 205.7 L 209.5 224.2 L 208.9 242.8 L 208.5 261.4 L 209.6 279.9 L 208.3 298.5" fill="none" stroke="#8f5c2e" stroke-width="0.55" stroke-linecap="round" opacity="0.35"/>
<path d="M 211.3 1.5 L 210.4 20.1 L 211.3 38.6 L 211.0 57.2 L 211.3 75.8 L 210.8 94.3 L 211.3 112.9 L 211.0 131.4 L 210.8 150.0 L 211.3 168.6 L 211.2 187.1 L 210.2 205.7 L 210.9 224.2 L 210.1 242.8 L 210.6 261.4 L 211.3 279.9 L 210.6 298.5" fill="none" stroke="#8f5c2e" stroke-width="0.55" stroke-linecap="round" opacity="0.35"/>
<line x1="210.0" y1="1.5" x2="210.0" y2="298.5" stroke="#dcae70" stroke-width="0.6" stroke-linecap="round" opacity="0.35"/>
<rect x="235.0" y="-1.0" width="10.0" height="302.0" rx="2.5" fill="#3f2510" opacity="0.55"/>
<rect x="236.0" y="0.0" width="8.0" height="300.0" rx="1.5" fill="url(#p7_l12)"/>
<path d="M 238.8 1.5 L 239.6 20.1 L 238.9 38.6 L 238.5 57.2 L 239.7 75.8 L 238.5 94.3 L 238.6 112.9 L 239.3 131.4 L 238.6 150.0 L 238.8 168.6 L 239.3 187.1 L 238.7 205.7 L 239.3 224.2 L 238.8 242.8 L 239.3 261.4 L 238.5 279.9 L 239.5 298.5" fill="none" stroke="#8f5c2e" stroke-width="0.55" stroke-linecap="round" opacity="0.35"/>
<path d="M 242.3 1.5 L 242.0 20.1 L 242.0 38.6 L 242.4 57.2 L 241.2 75.8 L 242.4 94.3 L 242.3 112.9 L 242.2 131.4 L 242.4 150.0 L 241.7 168.6 L 242.3 187.1 L 241.9 205.7 L 241.3 224.2 L 241.9 242.8 L 241.2 261.4 L 241.9 279.9 L 242.5 298.5" fill="none" stroke="#8f5c2e" stroke-width="0.55" stroke-linecap="round" opacity="0.35"/>
<ellipse cx="239.7" cy="93.9" rx="2.5" ry="1.8" fill="#7d5029" opacity="0.7"/>
<ellipse cx="239.7" cy="93.9" rx="1.2" ry="0.9" fill="#3f2510" opacity="0.6"/>
<line x1="240.0" y1="1.5" x2="240.0" y2="298.5" stroke="#dcae70" stroke-width="0.6" stroke-linecap="round" opacity="0.35"/>
<rect x="265.0" y="-1.0" width="10.0" height="302.0" rx="2.5" fill="#3f2510" opacity="0.55"/>
<rect x="266.0" y="0.0" width="8.0" height="300.0" rx="1.5" fill="url(#p7_l13)"/>
<path d="M 269.3 1.5 L 268.1 20.1 L 268.1 38.6 L 268.5 57.2 L 268.2 75.8 L 268.6 94.3 L 268.5 112.9 L 269.3 131.4 L 268.2 150.0 L 268.1 168.6 L 268.1 187.1 L 268.6 205.7 L 268.2 224.2 L 269.2 242.8 L 268.9 261.4 L 268.1 279.9 L 268.8 298.5" fill="none" stroke="#8f5c2e" stroke-width="0.55" stroke-linecap="round" opacity="0.35"/>
<path d="M 271.2 1.5 L 271.0 20.1 L 270.3 38.6 L 271.3 57.2 L 270.2 75.8 L 270.1 94.3 L 270.4 112.9 L 270.4 131.4 L 271.0 150.0 L 270.3 168.6 L 270.1 187.1 L 271.3 205.7 L 270.8 224.2 L 270.1 242.8 L 270.7 261.4 L 270.4 279.9 L 270.6 298.5" fill="none" stroke="#8f5c2e" stroke-width="0.55" stroke-linecap="round" opacity="0.35"/>
<ellipse cx="270.1" cy="231.7" rx="2.5" ry="1.8" fill="#7d5029" opacity="0.7"/>
<ellipse cx="270.1" cy="231.7" rx="1.2" ry="0.9" fill="#3f2510" opacity="0.6"/>
<line x1="270.0" y1="1.5" x2="270.0" y2="298.5" stroke="#dcae70" stroke-width="0.6" stroke-linecap="round" opacity="0.35"/>
<rect x="-1.0" y="5.0" width="302.0" height="14.0" rx="3" fill="#3f2510" opacity="0.55"/>
<rect x="0.0" y="6.0" width="300.0" height="12.0" rx="2" fill="url(#p7_l14)"/>
<path d="M 1.5 8.6 L 20.1 9.4 L 38.6 9.5 L 57.2 9.1 L 75.8 10.5 L 94.3 8.7 L 112.9 9.9 L 131.4 9.4 L 150.0 8.8 L 168.6 9.7 L 187.1 9.1 L 205.7 8.7 L 224.2 10.3 L 242.8 8.6 L 261.4 8.7 L 279.9 8.6 L 298.5 8.6" fill="none" stroke="#8f5c2e" stroke-width="0.55" stroke-linecap="round" opacity="0.35"/>
<path d="M 1.5 12.7 L 20.1 11.8 L 38.6 12.8 L 57.2 12.3 L 75.8 12.6 L 94.3 11.9 L 112.9 11.6 L 131.4 12.9 L 150.0 11.5 L 168.6 12.2 L 187.1 12.5 L 205.7 12.6 L 224.2 11.3 L 242.8 13.1 L 261.4 11.4 L 279.9 12.7 L 298.5 11.9" fill="none" stroke="#8f5c2e" stroke-width="0.55" stroke-linecap="round" opacity="0.35"/>
<path d="M 1.5 15.0 L 20.1 14.5 L 38.6 14.8 L 57.2 14.4 L 75.8 15.3 L 94.3 14.0 L 112.9 13.8 L 131.4 14.8 L 150.0 15.1 L 168.6 14.3 L 187.1 15.3 L 205.7 14.5 L 224.2 14.0 L 242.8 14.7 L 261.4 14.2 L 279.9 14.4 L 298.5 15.2" fill="none" stroke="#8f5c2e" stroke-width="0.55" stroke-linecap="round" opacity="0.35"/>
<line x1="2.0" y1="12.0" x2="298.0" y2="12.0" stroke="#dcae70" stroke-width="0.6" stroke-linecap="round" opacity="0.35"/>
<rect x="-1.0" y="281.0" width="302.0" height="14.0" rx="3" fill="#3f2510" opacity="0.55"/>
<rect x="0.0" y="282.0" width="300.0" height="12.0" rx="2" fill="url(#p7_l15)"/>
<path d="M 1.5 283.9 L 20.1 285.3 L 38.6 285.3 L 57.2 284.3 L 75.8 284.8 L 94.3 284.6 L 112.9 284.7 L 131.4 285.3 L 150.0 284.4 L 168.6 283.8 L 187.1 285.8 L 205.7 284.6 L 224.2 284.9 L 242.8 285.8 L 261.4 284.7 L 279.9 283.8 L 298.5 284.0" fill="none" stroke="#8f5c2e" stroke-width="0.55" stroke-linecap="round" opacity="0.35"/>
<path d="M 1.5 289.2 L 20.1 287.9 L 38.6 289.3 L 57.2 289.3 L 75.8 289.3 L 94.3 288.1 L 112.9 287.9 L 131.4 288.5 L 150.0 289.4 L 168.6 289.1 L 187.1 287.7 L 205.7 287.7 L 224.2 287.7 L 242.8 288.2 L 261.4 289.5 L 279.9 287.8 L 298.5 289.2" fill="none" stroke="#8f5c2e" stroke-width="0.55" stroke-linecap="round" opacity="0.35"/>
<path d="M 1.5 290.4 L 20.1 289.8 L 38.6 291.0 L 57.2 289.9 L 75.8 290.7 L 94.3 289.7 L 112.9 291.2 L 131.4 289.7 L 150.0 290.7 L 168.6 291.6 L 187.1 290.1 L 205.7 290.9 L 224.2 290.7 L 242.8 291.4 L 261.4 290.7 L 279.9 290.6 L 298.5 289.8" fill="none" stroke="#8f5c2e" stroke-width="0.55" stroke-linecap="round" opacity="0.35"/>
<line x1="2.0" y1="288.0" x2="298.0" y2="288.0" stroke="#dcae70" stroke-width="0.6" stroke-linecap="round" opacity="0.35"/>
<rect x="5.0" y="-1.0" width="14.0" height="302.0" rx="3" fill="#3f2510" opacity="0.55"/>
<rect x="6.0" y="0.0" width="12.0" height="300.0" rx="2" fill="url(#p7_l16)"/>
<path d="M 8.6 1.5 L 9.9 20.1 L 9.1 38.6 L 8.9 57.2 L 8.8 75.8 L 9.9 94.3 L 9.6 112.9 L 9.4 131.4 L 8.3 150.0 L 10.1 168.6 L 8.4 187.1 L 9.3 205.7 L 9.4 224.2 L 8.3 242.8 L 8.6 261.4 L 10.1 279.9 L 8.2 298.5" fill="none" stroke="#8f5c2e" stroke-width="0.55" stroke-linecap="round" opacity="0.35"/>
<path d="M 11.2 1.5 L 11.1 20.1 L 12.5 38.6 L 12.7 57.2 L 11.7 75.8 L 12.6 94.3 L 11.1 112.9 L 11.2 131.4 L 12.0 150.0 L 10.8 168.6 L 10.9 187.1 L 10.8 205.7 L 11.1 224.2 L 12.1 242.8 L 10.9 261.4 L 12.2 279.9 L 12.7 298.5" fill="none" stroke="#8f5c2e" stroke-width="0.55" stroke-linecap="round" opacity="0.35"/>
<path d="M 13.9 1.5 L 15.6 20.1 L 15.7 38.6 L 14.5 57.2 L 15.3 75.8 L 14.2 94.3 L 15.6 112.9 L 14.7 131.4 L 13.8 150.0 L 14.9 168.6 L 15.0 187.1 L 15.6 205.7 L 15.8 224.2 L 13.9 242.8 L 13.9 261.4 L 14.3 279.9 L 14.1 298.5" fill="none" stroke="#8f5c2e" stroke-width="0.55" stroke-linecap="round" opacity="0.35"/>
<ellipse cx="11.2" cy="232.8" rx="3.7" ry="2.6" fill="#7d5029" opacity="0.7"/>
<ellipse cx="11.2" cy="232.8" rx="1.8" ry="1.3" fill="#3f2510" opacity="0.6"/>
<line x1="12.0" y1="2.0" x2="12.0" y2="298.0" stroke="#dcae70" stroke-width="0.6" stroke-linecap="round" opacity="0.35"/>
<rect x="281.0" y="-1.0" width="14.0" height="302.0" rx="3" fill="#3f2510" opacity="0.55"/>
<rect x="282.0" y="0.0" width="12.0" height="300.0" rx="2" fill="url(#p7_l17)"/>
<path d="M 286.0 1.5 L 286.5 20.1 L 286.3 38.6 L 285.0 57.2 L 284.8 75.8 L 286.5 94.3 L 286.4 112.9 L 284.8 131.4 L 284.8 150.0 L 286.5 168.6 L 286.0 187.1 L 285.3 205.7 L 285.9 224.2 L 286.3 242.8 L 286.3 261.4 L 284.8 279.9 L 285.1 298.5" fill="none" stroke="#8f5c2e" stroke-width="0.55" stroke-linecap="round" opacity="0.35"/>
<path d="M 287.9 1.5 L 287.3 20.1 L 288.8 38.6 L 288.6 57.2 L 289.2 75.8 L 287.4 94.3 L 287.4 112.9 L 288.9 131.4 L 289.1 150.0 L 288.6 168.6 L 289.2 187.1 L 289.1 205.7 L 287.4 224.2 L 287.8 242.8 L 289.2 261.4 L 287.3 279.9 L 289.0 298.5" fill="none" stroke="#8f5c2e" stroke-width="0.55" stroke-linecap="round" opacity="0.35"/>
<path d="M 290.4 1.5 L 289.8 20.1 L 290.8 38.6 L 289.7 57.2 L 290.6 75.8 L 291.5 94.3 L 290.2 112.9 L 289.7 131.4 L 291.5 150.0 L 290.3 168.6 L 289.7 187.1 L 291.5 205.7 L 291.3 224.2 L 289.7 242.8 L 290.1 261.4 L 290.8 279.9 L 290.5 298.5" fill="none" stroke="#8f5c2e" stroke-width="0.55" stroke-linecap="round" opacity="0.35"/>
<line x1="288.0" y1="2.0" x2="288.0" y2="298.0" stroke="#dcae70" stroke-width="0.6" stroke-linecap="round" opacity="0.35"/>
<rect x="3.0" y="58.5" width="294.0" height="7.0" rx="2.5" fill="#3f2510" opacity="0.55"/>
<rect x="4.0" y="59.5" width="292.0" height="5.0" rx="1.5" fill="url(#p7_l18)"/>
<line x1="5.5" y1="62.0" x2="294.5" y2="62.0" stroke="#dcae70" stroke-width="0.6" stroke-linecap="round" opacity="0.35"/>
<rect x="3.0" y="102.5" width="294.0" height="7.0" rx="2.5" fill="#3f2510" opacity="0.55"/>
<rect x="4.0" y="103.5" width="292.0" height="5.0" rx="1.5" fill="url(#p7_l19)"/>
<line x1="5.5" y1="106.0" x2="294.5" y2="106.0" stroke="#dcae70" stroke-width="0.6" stroke-linecap="round" opacity="0.35"/>
<rect x="3.0" y="146.5" width="294.0" height="7.0" rx="2.5" fill="#3f2510" opacity="0.55"/>
<rect x="4.0" y="147.5" width="292.0" height="5.0" rx="1.5" fill="url(#p7_l20)"/>
<line x1="5.5" y1="150.0" x2="294.5" y2="150.0" stroke="#dcae70" stroke-width="0.6" stroke-linecap="round" opacity="0.35"/>
<rect x="3.0" y="190.5" width="294.0" height="7.0" rx="2.5" fill="#3f2510" opacity="0.55"/>
<rect x="4.0" y="191.5" width="292.0" height="5.0" rx="1.5" fill="url(#p7_l21)"/>
<line x1="5.5" y1="194.0" x2="294.5" y2="194.0" stroke="#dcae70" stroke-width="0.6" stroke-linecap="round" opacity="0.35"/>
<rect x="3.0" y="234.5" width="294.0" height="7.0" rx="2.5" fill="#3f2510" opacity="0.55"/>
<rect x="4.0" y="235.5" width="292.0" height="5.0" rx="1.5" fill="url(#p7_l22)"/>
<line x1="5.5" y1="238.0" x2="294.5" y2="238.0" stroke="#dcae70" stroke-width="0.6" stroke-linecap="round" opacity="0.35"/>
</svg>
