<svg xmlns="http://www.w3.org/2000/svg" viewBox="0 0 300 300">
<defs><radialGradient id="t10_r1" cx="50%" cy="50%" r="50%"><stop offset="67.8649%" stop-color="#224c82"/><stop offset="89.8649%" stop-color="#84b6ea"/><stop offset="100%" stop-color="#224c82"/></radialGradient><radialGradient id="t10_r2" cx="50%" cy="50%" r="55%"><stop offset="0%" stop-color="#5c5f63"/><stop offset="55%" stop-color="#303336"/><stop offset="100%" stop-color="#151719"/></radialGradient><radialGradient id="t10_r3" cx="50%" cy="50%" r="50%"><stop offset="0%" stop-color="#84b6ea"/><stop offset="55%" stop-color="#427bc2"/><stop offset="100%" stop-color="#224c82"/></radialGradient><radialGradient id="t10_r4" cx="50%" cy="50%" r="50%"><stop offset="0%" stop-color="#ffffff" stop-opacity="0.3"/><stop offset="100%" stop-color="#ffffff" stop-opacity="0"/></radialGradient><radialGradient id="t10_r5" cx="50%" cy="50%" r="50%"><stop offset="0%" stop-color="#eaedf0"/><stop offset="55%" stop-color="#adb4bc"/><stop offset="100%" stop-color="#626b73"/></radialGradient><radialGradient id="t10_r6" cx="50%" cy="50%" r="50%"><stop offset="0%" stop-color="#ffffff" stop-opacity="0.6"/><stop offset="100%" stop-color="#ffffff" stop-opacity="0"/></radialGradient><radialGradient id="t10_r7" cx="50%" cy="50%" r="50%"><stop offset="0%" stop-color="#84b6ea"/><stop offset="55%" stop-color="#427bc2"/><stop offset="100%" stop-color="#224c82"/></radialGradient><radialGradient id="t10_r8" cx="50%" cy="50%" r="50%"><stop offset="0%" stop-color="#ffffff" stop-opacity="0.3"/><stop offset="100%" stop-color="#ffffff" stop-opacity="0"/></radialGradient><radialGradient id="t10_r9" cx="50%" cy="50%" r="50%"><stop offset="0%" stop-color="#eaedf0"/><stop offset="55%" stop-color="#adb4bc"/><stop offset="100%" stop-color="#626b73"/></radialGradient><radialGradient id="t10_r10" cx="50%" cy="50%" r="50%"><stop offset="0%" stop-color="#ffffff" stop-opacity="0.6"/><stop offset="100%" stop-color="#ffffff" stop-opacity="0"/></radialGradient><radialGradient id="t10_r11" cx="50%" cy="50%" r="50%"><stop offset="0%" stop-color="#84b6ea"/><stop offset="55%" stop-color="#427bc2"/><stop offset="100%" stop-color="#224c82"/></radialGradient><radialGradient id="t10_r12" cx="50%" cy="50%" r="50%"><stop offset="0%" stop-color="#ffffff" stop-opacity="0.3"/><stop offset="100%" stop-color="#ffffff" stop-opacity="0"/></radialGradient><radialGradient id="t10_r13" cx="50%" cy="50%" r="50%"><stop offset="0%" stop-color="#eaedf0"/><stop offset="55%" stop-color="#adb4bc"/><stop offset="100%" stop-color="#626b73"/></radialGradient><radialGradient id="t10_r14" cx="50%" cy="50%" r="50%"><stop offset="0%" stop-color="#ffffff" stop-opacity="0.6"/><stop offset="100%" stop-color="#ffffff" stop-opacity="0"/></radialGradient><radialGradient id="t10_r15" cx="50%" cy="50%" r="50%"><stop offset="0%" stop-color="#84b6ea"/><stop offset="55%" stop-color="#427bc2"/><stop offset="100%" stop-color="#224c82"/></radialGradient><radialGradient id="t10_r16" cx="50%" cy="50%" r="50%"><stop offset="0%" stop-color="#ffffff" stop-opacity="0.3"/><stop offset="100%" stop-color="#ffffff" stop-opacity="0"/></radialGradient><radialGradient id="t10_r17" cx="50%" cy="50%" r="50%"><stop offset="0%" stop-color="#eaedf0"/><stop offset="55%" stop-color="#adb4bc"/><stop offset="100%" stop-color="#626b73"/></radialGradient><radialGradient id="t10_r18" cx="50%" cy="50%" r="50%"><stop offset="0%" stop-color="#ffffff" stop-opacity="0.6"/><stop offset="100%" stop-color="#ffffff" stop-opacity="0"/></radialGradient><radialGradient id="t10_r19" cx="50%" cy="50%" r="50%"><stop offset="0%" stop-color="#84b6ea"/><stop offset="55%" stop-color="#427bc2"/><stop offset="100%" stop-color="#224c82"/></radialGradient><radialGradient id="t10_r20" cx="50%" cy="50%" r="50%"><stop offset="0%" stop-color="#ffffff" stop-opacity="0.3"/><stop offset="100%" stop-color="#ffffff" stop-opacity="0"/></radialGradient><radialGradient id="t10_r21" cx="50%" cy="50%" r="50%"><stop offset="0%" stop-color="#eaedf0"/><stop offset="55%" stop-color="#adb4bc"/><stop offset="100%" stop-color="#626b73"/></radialGradient><radialGradient id="t10_r22" cx="50%" cy="50%" r="50%"><stop offset="0%" stop-color="#ffffff" stop-opacity="0.6"/><stop offset="100%" stop-color="#ffffff" stop-opacity="0"/></radialGradient><radialGradient id="t10_r23" cx="50%" cy="50%" r="50%"><stop offset="0%" stop-color="#84b6ea"/><stop offset="55%" stop-color="#427bc2"/><stop offset="100%" stop-color="#224c82"/></radialGradient><radialGradient id="t10_r24" cx="50%" cy="50%" r="50%"><stop offset="0%" stop-color="#ffffff" stop-opacity="0.3"/><stop offset="100%" stop-color="#ffffff" stop-opacity="0"/></radialGradient><radialGradient id="t10_r25" cx="50%" cy="50%" r="50%"><stop offset="0%" stop-color="#eaedf0"/><stop offset="55%" stop-color="#adb4bc"/><stop offset="100%" stop-color="#626b73"/></radialGradient><radialGradient id="t10_r26" cx="50%" cy="50%" r="50%"><stop offset="0%" stop-color="#ffffff" stop-opacity="0.6"/><stop offset="100%" stop-color="#ffffff" stop-opacity="0"/></radialGradient></defs>
<circle cx="150.0" cy="150.0" r="149.2" fill="#10294c" opacity="0.55"/>
<path d="M 298.0 150.0 A 148.0 148.0 0 1 1 2.0 150.0 A 148.0 148.0 0 1 1 298.0 150.0 Z M 268.0 150.0 A 118.0 118.0 0 1 0 32.0 150.0 A 118.0 118.0 0 1 0 268.0 150.0 Z" fill="url(#t10_r1)"/>
<circle cx="150.0" cy="150.0" r="145.5" fill="none" stroke="#84b6ea" stroke-width="1.2" opacity="0.5"/>
<circle cx="150.0" cy="150.0" r="120.5" fill="none" stroke="#84b6ea" stroke-width="1.2" opacity="0.4"/>
<line x1="265.9" y1="181.1" x2="291.0" y2="187.8" stroke="#224c82" stroke-width="1.4" stroke-linecap="round" opacity="0.55"/>
<line x1="234.9" y1="234.9" x2="253.2" y2="253.2" stroke="#224c82" stroke-width="1.4" stroke-linecap="round" opacity="0.55"/>
<line x1="181.1" y1="265.9" x2="187.8" y2="291.0" stroke="#224c82" stroke-width="1.4" stroke-linecap="round" opacity="0.55"/>
<line x1="118.9" y1="265.9" x2="112.2" y2="291.0" stroke="#224c82" stroke-width="1.4" stroke-linecap="round" opacity="0.55"/>
<line x1="65.1" y1="234.9" x2="46.8" y2="253.2" stroke="#224c82" stroke-width="1.4" stroke-linecap="round" opacity="0.55"/>
<line x1="34.1" y1="181.1" x2="9.0" y2="187.8" stroke="#224c82" stroke-width="1.4" stroke-linecap="round" opacity="0.55"/>
<line x1="34.1" y1="118.9" x2="9.0" y2="112.2" stroke="#224c82" stroke-width="1.4" stroke-linecap="round" opacity="0.55"/>
<line x1="65.1" y1="65.1" x2="46.8" y2="46.8" stroke="#224c82" stroke-width="1.4" stroke-linecap="round" opacity="0.55"/>
<line x1="118.9" y1="34.1" x2="112.2" y2="9.0" stroke="#224c82" stroke-width="1.4" stroke-linecap="round" opacity="0.55"/>
<line x1="181.1" y1="34.1" x2="187.8" y2="9.0" stroke="#224c82" stroke-width="1.4" stroke-linecap="round" opacity="0.55"/>
<line x1="234.9" y1="65.1" x2="253.2" y2="46.8" stroke="#224c82" stroke-width="1.4" stroke-linecap="round" opacity="0.55"/>
<line x1="265.9" y1="118.9" x2="291.0" y2="112.2" stroke="#224c82" stroke-width="1.4" stroke-linecap="round" opacity="0.55"/>
<path d="M 268.0 150.0 A 118.0 118.0 0 1 1 32.0 150.0 A 118.0 118.0 0 1 1 268.0 150.0 Z M 258.0 150.0 A 108.0 108.0 0 1 0 42.0 150.0 A 108.0 108.0 0 1 0 258.0 150.0 Z" fill="#050606" opacity="0.85"/>
<line x1="259.0" y1="150.0" x2="267.0" y2="150.0" stroke="#eaedf0" stroke-width="1.6" stroke-linecap="round" opacity="0.9"/>
<line x1="257.3" y1="168.9" x2="265.2" y2="170.3" stroke="#eaedf0" stroke-width="1.6" stroke-linecap="round" opacity="0.9"/>
<line x1="252.4" y1="187.3" x2="259.9" y2="190.0" stroke="#eaedf0" stroke-width="1.6" stroke-linecap="round" opacity="0.9"/>
<line x1="244.4" y1="204.5" x2="251.3" y2="208.5" stroke="#eaedf0" stroke-width="1.6" stroke-linecap="round" opacity="0.9"/>
<line x1="233.5" y1="220.1" x2="239.6" y2="225.2" stroke="#eaedf0" stroke-width="1.6" stroke-linecap="round" opacity="0.9"/>
<line x1="220.1" y1="233.5" x2="225.2" y2="239.6" stroke="#eaedf0" stroke-width="1.6" stroke-linecap="round" opacity="0.9"/>
<line x1="204.5" y1="244.4" x2="208.5" y2="251.3" stroke="#eaedf0" stroke-width="1.6" stroke-linecap="round" opacity="0.9"/>
<line x1="187.3" y1="252.4" x2="190.0" y2="259.9" stroke="#eaedf0" stroke-width="1.6" stroke-linecap="round" opacity="0.9"/>
<line x1="168.9" y1="257.3" x2="170.3" y2="265.2" stroke="#eaedf0" stroke-width="1.6" stroke-linecap="round" opacity="0.9"/>
<line x1="150.0" y1="259.0" x2="150.0" y2="267.0" stroke="#eaedf0" stroke-width="1.6" stroke-linecap="round" opacity="0.9"/>
<line x1="131.1" y1="257.3" x2="129.7" y2="265.2" stroke="#eaedf0" stroke-width="1.6" stroke-linecap="round" opacity="0.9"/>
<line x1="112.7" y1="252.4" x2="110.0" y2="259.9" stroke="#eaedf0" stroke-width="1.6" stroke-linecap="round" opacity="0.9"/>
<line x1="95.5" y1="244.4" x2="91.5" y2="251.3" stroke="#eaedf0" stroke-width="1.6" stroke-linecap="round" opacity="0.9"/>
<line x1="79.9" y1="233.5" x2="74.8" y2="239.6" stroke="#eaedf0" stroke-width="1.6" stroke-linecap="round" opacity="0.9"/>
<line x1="66.5" y1="220.1" x2="60.4" y2="225.2" stroke="#eaedf0" stroke-width="1.6" stroke-linecap="round" opacity="0.9"/>
<line x1="55.6" y1="204.5" x2="48.7" y2="208.5" stroke="#eaedf0" stroke-width="1.6" stroke-linecap="round" opacity="0.9"/>
<line x1="47.6" y1="187.3" x2="40.1" y2="190.0" stroke="#eaedf0" stroke-width="1.6" stroke-linecap="round" opacity="0.9"/>
<line x1="42.7" y1="168.9" x2="34.8" y2="170.3" stroke="#eaedf0" stroke-width="1.6" stroke-linecap="round" opacity="0.9"/>
<line x1="41.0" y1="150.0" x2="33.0" y2="150.0" stroke="#eaedf0" stroke-width="1.6" stroke-linecap="round" opacity="0.9"/>
<line x1="42.7" y1="131.1" x2="34.8" y2="129.7" stroke="#eaedf0" stroke-width="1.6" stroke-linecap="round" opacity="0.9"/>
<line x1="47.6" y1="112.7" x2="40.1" y2="110.0" stroke="#eaedf0" stroke-width="1.6" stroke-linecap="round" opacity="0.9"/>
<line x1="55.6" y1="95.5" x2="48.7" y2="91.5" stroke="#eaedf0" stroke-width="1.6" stroke-linecap="round" opacity="0.9"/>
<line x1="66.5" y1="79.9" x2="60.4" y2="74.8" stroke="#eaedf0" stroke-width="1.6" stroke-linecap="round" opacity="0.9"/>
<line x1="79.9" y1="66.5" x2="74.8" y2="60.4" stroke="#eaedf0" stroke-width="1.6" stroke-linecap="round" opacity="0.9"/>
<line x1="95.5" y1="55.6" x2="91.5" y2="48.7" stroke="#eaedf0" stroke-width="1.6" stroke-linecap="round" opacity="0.9"/>
<line x1="112.7" y1="47.6" x2="110.0" y2="40.1" stroke="#eaedf0" stroke-width="1.6" stroke-linecap="round" opacity="0.9"/>
<line x1="131.1" y1="42.7" x2="129.7" y2="34.8" stroke="#eaedf0" stroke-width="1.6" stroke-linecap="round" opacity="0.9"/>
<line x1="150.0" y1="41.0" x2="150.0" y2="33.0" stroke="#eaedf0" stroke-width="1.6" stroke-linecap="round" opacity="0.9"/>
<line x1="168.9" y1="42.7" x2="170.3" y2="34.8" stroke="#eaedf0" stroke-width="1.6" stroke-linecap="round" opacity="0.9"/>
<line x1="187.3" y1="47.6" x2="190.0" y2="40.1" stroke="#eaedf0" stroke-width="1.6" stroke-linecap="round" opacity="0.9"/>
<line x1="204.5" y1="55.6" x2="208.5" y2="48.7" stroke="#eaedf0" stroke-width="1.6" stroke-linecap="round" opacity="0.9"/>
<line x1="220.1" y1="66.5" x2="225.2" y2="60.4" stroke="#eaedf0" stroke-width="1.6" stroke-linecap="round" opacity="0.9"/>
<line x1="233.5" y1="79.9" x2="239.6" y2="74.8" stroke="#eaedf0" stroke-width="1.6" stroke-linecap="round" opacity="0.9"/>
<line x1="244.4" y1="95.5" x2="251.3" y2="91.5" stroke="#eaedf0" stroke-width="1.6" stroke-linecap="round" opacity="0.9"/>
<line x1="252.4" y1="112.7" x2="259.9" y2="110.0" stroke="#eaedf0" stroke-width="1.6" stroke-linecap="round" opacity="0.9"/>
<line x1="257.3" y1="131.1" x2="265.2" y2="129.7" stroke="#eaedf0" stroke-width="1.6" stroke-linecap="round" opacity="0.9"/>
<circle cx="150.0" cy="150.0" r="108.0" fill="url(#t10_r2)"/>
<line x1="43.6" y1="139.0" x2="256.4" y2="139.0" stroke="#5c5f63" stroke-width="0.5" stroke-linecap="butt" opacity="0.18"/>
<line x1="139.0" y1="43.6" x2="139.0" y2="256.4" stroke="#5c5f63" stroke-width="0.5" stroke-linecap="butt" opacity="0.18"/>
<line x1="43.6" y1="161.0" x2="256.4" y2="161.0" stroke="#5c5f63" stroke-width="0.5" stroke-linecap="butt" opacity="0.18"/>
<line x1="161.0" y1="43.6" x2="161.0" y2="256.4" stroke="#5c5f63" stroke-width="0.5" stroke-linecap="butt" opacity="0.18"/>
<line x1="45.3" y1="128.0" x2="254.7" y2="128.0" stroke="#5c5f63" stroke-width="0.5" stroke-linecap="butt" opacity="0.18"/>
<line x1="128.0" y1="45.3" x2="128.0" y2="254.7" stroke="#5c5f63" stroke-width="0.5" stroke-linecap="butt" opacity="0.18"/>
<line x1="45.3" y1="172.0" x2="254.7" y2="172.0" stroke="#5c5f63" stroke-width="0.5" stroke-linecap="butt" opacity="0.18"/>
<line x1="172.0" y1="45.3" x2="172.0" y2="254.7" stroke="#5c5f63" stroke-width="0.5" stroke-linecap="butt" opacity="0.18"/>
<line x1="48.2" y1="117.0" x2="251.8" y2="117.0" stroke="#5c5f63" stroke-width="0.5" stroke-linecap="butt" opacity="0.18"/>
<line x1="117.0" y1="48.2" x2="117.0" y2="251.8" stroke="#5c5f63" stroke-width="0.5" stroke-linecap="butt" opacity="0.18"/>
<line x1="48.2" y1="183.0" x2="251.8" y2="183.0" stroke="#5c5f63" stroke-width="0.5" stroke-linecap="butt" opacity="0.18"/>
<line x1="183.0" y1="48.2" x2="183.0" y2="251.8" stroke="#5c5f63" stroke-width="0.5" stroke-linecap="butt" opacity="0.18"/>
<line x1="52.5" y1="106.0" x2="247.5" y2="106.0" stroke="#5c5f63" stroke-width="0.5" stroke-linecap="butt" opacity="0.18"/>
<line x1="106.0" y1="52.5" x2="106.0" y2="247.5" stroke="#5c5f63" stroke-width="0.5" stroke-linecap="butt" opacity="0.18"/>
<line x1="52.5" y1="194.0" x2="247.5" y2="194.0" stroke="#5c5f63" stroke-width="0.5" stroke-linecap="butt" opacity="0.18"/>
<line x1="194.0" y1="52.5" x2="194.0" y2="247.5" stroke="#5c5f63" stroke-width="0.5" stroke-linecap="butt" opacity="0.18"/>
<line x1="58.2" y1="95.0" x2="241.8" y2="95.0" stroke="#5c5f63" stroke-width="0.5" stroke-linecap="butt" opacity="0.18"/>
<line x1="95.0" y1="58.2" x2="95.0" y2="241.8" stroke="#5c5f63" stroke-width="0.5" stroke-linecap="butt" opacity="0.18"/>
<line x1="58.2" y1="205.0" x2="241.8" y2="205.0" stroke="#5c5f63" stroke-width="0.5" stroke-linecap="butt" opacity="0.18"/>
<line x1="205.0" y1="58.2" x2="205.0" y2="241.8" stroke="#5c5f63" stroke-width="0.5" stroke-linecap="butt" opacity="0.18"/>
<line x1="65.8" y1="84.0" x2="234.2" y2="84.0" stroke="#5c5f63" stroke-width="0.5" stroke-linecap="butt" opacity="0.18"/>
<line x1="84.0" y1="65.8" x2="84.0" y2="234.2" stroke="#5c5f63" stroke-width="0.5" stroke-linecap="butt" opacity="0.18"/>
<line x1="65.8" y1="216.0" x2="234.2" y2="216.0" stroke="#5c5f63" stroke-width="0.5" stroke-linecap="butt" opacity="0.18"/>
<line x1="216.0" y1="65.8" x2="216.0" y2="234.2" stroke="#5c5f63" stroke-width="0.5" stroke-linecap="butt" opacity="0.18"/>
<line x1="75.7" y1="73.0" x2="224.3" y2="73.0" stroke="#5c5f63" stroke-width="0.5" stroke-linecap="butt" opacity="0.18"/>
<line x1="73.0" y1="75.7" x2="73.0" y2="224.3" stroke="#5c5f63" stroke-width="0.5" stroke-linecap="butt" opacity="0.18"/>
<line x1="75.7" y1="227.0" x2="224.3" y2="227.0" stroke="#5c5f63" stroke-width="0.5" stroke-linecap="butt" opacity="0.18"/>
<line x1="227.0" y1="75.7" x2="227.0" y2="224.3" stroke="#5c5f63" stroke-width="0.5" stroke-linecap="butt" opacity="0.18"/>
<line x1="89.1" y1="62.0" x2="210.9" y2="62.0" stroke="#5c5f63" stroke-width="0.5" stroke-linecap="butt" opacity="0.18"/>
<line x1="62.0" y1="89.1" x2="62.0" y2="210.9" stroke="#5c5f63" stroke-width="0.5" stroke-linecap="butt" opacity="0.18"/>
<line x1="89.1" y1="238.0" x2="210.9" y2="238.0" stroke="#5c5f63" stroke-width="0.5" stroke-linecap="butt" opacity="0.18"/>
<line x1="238.0" y1="89.1" x2="238.0" y2="210.9" stroke="#5c5f63" stroke-width="0.5" stroke-linecap="butt" opacity="0.18"/>
<line x1="109.4" y1="51.0" x2="190.6" y2="51.0" stroke="#5c5f63" stroke-width="0.5" stroke-linecap="butt" opacity="0.18"/>
<line x1="51.0" y1="109.4" x2="51.0" y2="190.6" stroke="#5c5f63" stroke-width="0.5" stroke-linecap="butt" opacity="0.18"/>
<line x1="109.4" y1="249.0" x2="190.6" y2="249.0" stroke="#5c5f63" stroke-width="0.5" stroke-linecap="butt" opacity="0.18"/>
<line x1="249.0" y1="109.4" x2="249.0" y2="190.6" stroke="#5c5f63" stroke-width="0.5" stroke-linecap="butt" opacity="0.18"/>
<line x1="43.0" y1="150.0" x2="257.0" y2="150.0" stroke="#5c5f63" stroke-width="0.5" stroke-linecap="butt" opacity="0.18"/>
<line x1="150.0" y1="43.0" x2="150.0" y2="257.0" stroke="#5c5f63" stroke-width="0.5" stroke-linecap="butt" opacity="0.18"/>
<circle cx="150.0" cy="150.0" r="26" fill="none" stroke="#84b6ea" stroke-width="1.6" opacity="0.35"/>
<circle cx="150.0" cy="150.0" r="8" fill="none" stroke="#84b6ea" stroke-width="1.6" opacity="0.35"/>
<circle cx="150.0" cy="150.0" r="134.0" fill="none" stroke="#ffffff" stroke-width="0.9" opacity="0.4"/>
<circle cx="266.0" cy="217.0" r="7.7" fill="#10294c" opacity="0.55"/>
<circle cx="266.0" cy="217.0" r="6.5" fill="url(#t10_r3)"/>
<circle cx="264.6" cy="215.6" r="3.6" fill="url(#t10_r4)"/>
<circle cx="266.0" cy="217.0" r="2.6" fill="url(#t10_r5)"/>
<circle cx="265.5" cy="216.4" r="1.4" fill="url(#t10_r6)"/>
<circle cx="150.0" cy="284.0" r="7.7" fill="#10294c" opacity="0.55"/>
<circle cx="150.0" cy="284.0" r="6.5" fill="url(#t10_r7)"/>
<circle cx="148.6" cy="282.6" r="3.6" fill="url(#t10_r8)"/>
<circle cx="150.0" cy="284.0" r="2.6" fill="url(#t10_r9)"/>
<circle cx="149.4" cy="283.4" r="1.4" fill="url(#t10_r10)"/>
<circle cx="34.0" cy="217.0" r="7.7" fill="#10294c" opacity="0.55"/>
<circle cx="34.0" cy="217.0" r="6.5" fill="url(#t10_r11)"/>
<circle cx="32.5" cy="215.6" r="3.6" fill="url(#t10_r12)"/>
<circle cx="34.0" cy="217.0" r="2.6" fill="url(#t10_r13)"/>
<circle cx="33.4" cy="216.4" r="1.4" fill="url(#t10_r14)"/>
<circle cx="34.0" cy="83.0" r="7.7" fill="#10294c" opacity="0.55"/>
<circle cx="34.0" cy="83.0" r="6.5" fill="url(#t10_r15)"/>
<circle cx="32.5" cy="81.6" r="3.6" fill="url(#t10_r16)"/>
<circle cx="34.0" cy="83.0" r="2.6" fill="url(#t10_r17)"/>
<circle cx="33.4" cy="82.4" r="1.4" fill="url(#t10_r18)"/>
<circle cx="150.0" cy="16.0" r="7.7" fill="#10294c" opacity="0.55"/>
<circle cx="150.0" cy="16.0" r="6.5" fill="url(#t10_r19)"/>
<circle cx="148.6" cy="14.6" r="3.6" fill="url(#t10_r20)"/>
<circle cx="150.0" cy="16.0" r="2.6" fill="url(#t10_r21)"/>
<circle cx="149.4" cy="15.4" r="1.4" fill="url(#t10_r22)"/>
<circle cx="266.0" cy="83.0" r="7.7" fill="#10294c" opacity="0.55"/>
<circle cx="266.0" cy="83.0" r="6.5" fill="url(#t10_r23)"/>
<circle cx="264.6" cy="81.6" r="3.6" fill="url(#t10_r24)"/>
<circle cx="266.0" cy="83.0" r="2.6" fill="url(#t10_r25)"/>
<circle cx="265.5" cy="82.4" r="1.4" fill="url(#t10_r26)"/>
</svg>
