<svg xmlns="http://www.w3.org/2000/svg" viewBox="0 0 100 100">
<!-- leek — generated by scripts/generate_plant_sprites.py (do not hand-edit) -->
<defs><radialGradient id="l4_shadow" cx="50%" cy="50%" r="50%"><stop offset="0%" stop-color="#12300d" stop-opacity="0.28"/><stop offset="62%" stop-color="#12300d" stop-opacity="0.25"/><stop offset="100%" stop-color="#12300d" stop-opacity="0"/></radialGradient><linearGradient id="l4_r0" x1="0" y1="0" x2="0" y2="1"><stop offset="0%" stop-color="#5c9b7b"/><stop offset="48%" stop-color="#427a5f"/><stop offset="100%" stop-color="#22513d"/></linearGradient><linearGradient id="l4_r1" x1="0" y1="0" x2="0" y2="1"><stop offset="0%" stop-color="#7cb494"/><stop offset="48%" stop-color="#588f73"/><stop offset="100%" stop-color="#2c624a"/></linearGradient><linearGradient id="l4_r2" x1="0" y1="0" x2="0" y2="1"><stop offset="0%" stop-color="#9bcdad"/><stop offset="48%" stop-color="#6ea486"/><stop offset="100%" stop-color="#377357"/></linearGradient><radialGradient id="l4_bulb" cx="40%" cy="38%" r="62%"><stop offset="0%" stop-color="#e8f0d8"/><stop offset="55%" stop-color="#c3d8a8"/><stop offset="100%" stop-color="#8aa86a"/></radialGradient></defs>
<circle cx="50" cy="50" r="41.0" fill="url(#l4_shadow)"/>
<circle cx="50" cy="50" r="11.4" fill="#0f2e21" opacity="0.5"/>
<circle cx="50.0" cy="50.0" r="14.0" fill="#0f2e21" opacity="0.5"/><g transform="rotate(-6.3 50.0 50.0)"><path d="M 50.0 20.1 C 52.1 26.9, 51.9 42.4, 50.0 51.0 C 48.1 42.4, 47.9 26.9, 50.0 20.1 Z" fill="url(#l4_r1)"/></g><g transform="rotate(22.4 50.0 50.0)"><path d="M 50.0 20.4 C 52.1 27.1, 51.9 42.4, 50.0 51.0 C 48.1 42.4, 47.9 27.1, 50.0 20.4 Z" fill="url(#l4_r1)"/></g><g transform="rotate(33.4 50.0 50.0)"><path d="M 50.0 14.6 C 52.1 22.6, 51.9 40.8, 50.0 51.0 C 48.1 40.8, 47.9 22.6, 50.0 14.6 Z" fill="url(#l4_r2)"/></g><g transform="rotate(52.5 50.0 50.0)"><path d="M 50.0 17.6 C 52.1 25.0, 51.9 41.7, 50.0 51.0 C 48.1 41.7, 47.9 25.0, 50.0 17.6 Z" fill="url(#l4_r1)"/></g><g transform="rotate(78.3 50.0 50.0)"><path d="M 50.0 15.7 C 52.1 23.5, 51.9 41.1, 50.0 51.0 C 48.1 41.1, 47.9 23.5, 50.0 15.7 Z" fill="url(#l4_r0)"/></g><g transform="rotate(80.8 50.0 50.0)"><path d="M 50.0 24.8 C 52.1 30.5, 51.9 43.7, 50.0 51.0 C 48.1 43.7, 47.9 30.5, 50.0 24.8 Z" fill="url(#l4_r1)"/></g><g transform="rotate(109.2 50.0 50.0)"><path d="M 50.0 22.2 C 52.1 28.5, 51.9 42.9, 50.0 51.0 C 48.1 42.9, 47.9 28.5, 50.0 22.2 Z" fill="url(#l4_r0)"/></g><g transform="rotate(129.6 50.0 50.0)"><path d="M 50.0 16.4 C 52.1 24.0, 51.9 41.3, 50.0 51.0 C 48.1 41.3, 47.9 24.0, 50.0 16.4 Z" fill="url(#l4_r2)"/></g><g transform="rotate(146.6 50.0 50.0)"><path d="M 50.0 18.5 C 52.1 25.6, 51.9 41.9, 50.0 51.0 C 48.1 41.9, 47.9 25.6, 50.0 18.5 Z" fill="url(#l4_r2)"/></g><g transform="rotate(158.2 50.0 50.0)"><path d="M 50.0 25.1 C 52.1 30.8, 51.9 43.8, 50.0 51.0 C 48.1 43.8, 47.9 30.8, 50.0 25.1 Z" fill="url(#l4_r0)"/></g><g transform="rotate(185.5 50.0 50.0)"><path d="M 50.0 26.6 C 52.1 31.9, 51.9 44.2, 50.0 51.0 C 48.1 44.2, 47.9 31.9, 50.0 26.6 Z" fill="url(#l4_r1)"/></g><g transform="rotate(197.3 50.0 50.0)"><path d="M 50.0 25.8 C 52.1 31.3, 51.9 43.9, 50.0 51.0 C 48.1 43.9, 47.9 31.3, 50.0 25.8 Z" fill="url(#l4_r0)"/></g><g transform="rotate(210.4 50.0 50.0)"><path d="M 50.0 15.8 C 52.1 23.6, 51.9 41.2, 50.0 51.0 C 48.1 41.2, 47.9 23.6, 50.0 15.8 Z" fill="url(#l4_r1)"/></g><g transform="rotate(231.6 50.0 50.0)"><path d="M 50.0 14.9 C 52.1 22.8, 51.9 40.9, 50.0 51.0 C 48.1 40.9, 47.9 22.8, 50.0 14.9 Z" fill="url(#l4_r2)"/></g><g transform="rotate(246.8 50.0 50.0)"><path d="M 50.0 25.8 C 52.1 31.3, 51.9 43.9, 50.0 51.0 C 48.1 43.9, 47.9 31.3, 50.0 25.8 Z" fill="url(#l4_r1)"/></g><g transform="rotate(269.0 50.0 50.0)"><path d="M 50.0 19.4 C 52.1 26.4, 51.9 42.2, 50.0 51.0 C 48.1 42.2, 47.9 26.4, 50.0 19.4 Z" fill="url(#l4_r1)"/></g><g transform="rotate(283.8 50.0 50.0)"><path d="M 50.0 24.6 C 52.1 30.4, 51.9 43.6, 50.0 51.0 C 48.1 43.6, 47.9 30.4, 50.0 24.6 Z" fill="url(#l4_r1)"/></g><g transform="rotate(297.5 50.0 50.0)"><path d="M 50.0 15.8 C 52.1 23.6, 51.9 41.1, 50.0 51.0 C 48.1 41.1, 47.9 23.6, 50.0 15.8 Z" fill="url(#l4_r2)"/></g><g transform="rotate(323.2 50.0 50.0)"><path d="M 50.0 16.6 C 52.1 24.2, 51.9 41.4, 50.0 51.0 C 48.1 41.4, 47.9 24.2, 50.0 16.6 Z" fill="url(#l4_r0)"/></g><g transform="rotate(351.4 50.0 50.0)"><path d="M 50.0 18.0 C 52.1 25.3, 51.9 41.8, 50.0 51.0 C 48.1 41.8, 47.9 25.3, 50.0 18.0 Z" fill="url(#l4_r1)"/></g><circle cx="50.0" cy="50.0" r="1.6" fill="#2c624a" opacity="0.8"/>
<circle cx="50.0" cy="50.0" r="9.6" fill="#0f2e21" opacity="0.5"/><g transform="rotate(8.9 50.0 50.0)"><path d="M 50.0 25.9 C 51.9 31.4, 51.7 44.0, 50.0 51.0 C 48.3 44.0, 48.1 31.4, 50.0 25.9 Z" fill="url(#l4_r1)"/></g><g transform="rotate(22.2 50.0 50.0)"><path d="M 50.0 31.9 C 51.9 36.1, 51.7 45.7, 50.0 51.0 C 48.3 45.7, 48.1 36.1, 50.0 31.9 Z" fill="url(#l4_r1)"/></g><g transform="rotate(37.7 50.0 50.0)"><path d="M 50.0 32.1 C 51.9 36.2, 51.7 45.7, 50.0 51.0 C 48.3 45.7, 48.1 36.2, 50.0 32.1 Z" fill="url(#l4_r2)"/></g><g transform="rotate(68.9 50.0 50.0)"><path d="M 50.0 28.2 C 51.9 33.2, 51.7 44.6, 50.0 51.0 C 48.3 44.6, 48.1 33.2, 50.0 28.2 Z" fill="url(#l4_r1)"/></g><g transform="rotate(80.6 50.0 50.0)"><path d="M 50.0 31.3 C 51.9 35.6, 51.7 45.5, 50.0 51.0 C 48.3 45.5, 48.1 35.6, 50.0 31.3 Z" fill="url(#l4_r1)"/></g><g transform="rotate(110.1 50.0 50.0)"><path d="M 50.0 29.3 C 51.9 34.1, 51.7 44.9, 50.0 51.0 C 48.3 44.9, 48.1 34.1, 50.0 29.3 Z" fill="url(#l4_r2)"/></g><g transform="rotate(139.5 50.0 50.0)"><path d="M 50.0 33.5 C 51.9 37.3, 51.7 46.1, 50.0 51.0 C 48.3 46.1, 48.1 37.3, 50.0 33.5 Z" fill="url(#l4_r1)"/></g><g transform="rotate(165.6 50.0 50.0)"><path d="M 50.0 33.2 C 51.9 37.1, 51.7 46.0, 50.0 51.0 C 48.3 46.0, 48.1 37.1, 50.0 33.2 Z" fill="url(#l4_r2)"/></g><g transform="rotate(182.5 50.0 50.0)"><path d="M 50.0 29.5 C 51.9 34.2, 51.7 45.0, 50.0 51.0 C 48.3 45.0, 48.1 34.2, 50.0 29.5 Z" fill="url(#l4_r1)"/></g><g transform="rotate(209.2 50.0 50.0)"><path d="M 50.0 33.3 C 51.9 37.2, 51.7 46.0, 50.0 51.0 C 48.3 46.0, 48.1 37.2, 50.0 33.3 Z" fill="url(#l4_r2)"/></g><g transform="rotate(234.6 50.0 50.0)"><path d="M 50.0 32.1 C 51.9 36.3, 51.7 45.7, 50.0 51.0 C 48.3 45.7, 48.1 36.3, 50.0 32.1 Z" fill="url(#l4_r2)"/></g><g transform="rotate(247.9 50.0 50.0)"><path d="M 50.0 29.2 C 51.9 34.0, 51.7 44.9, 50.0 51.0 C 48.3 44.9, 48.1 34.0, 50.0 29.2 Z" fill="url(#l4_r1)"/></g><g transform="rotate(263.5 50.0 50.0)"><path d="M 50.0 33.3 C 51.9 37.2, 51.7 46.1, 50.0 51.0 C 48.3 46.1, 48.1 37.2, 50.0 33.3 Z" fill="url(#l4_r2)"/></g><g transform="rotate(299.8 50.0 50.0)"><path d="M 50.0 31.1 C 51.9 35.5, 51.7 45.4, 50.0 51.0 C 48.3 45.4, 48.1 35.5, 50.0 31.1 Z" fill="url(#l4_r1)"/></g><g transform="rotate(322.0 50.0 50.0)"><path d="M 50.0 31.8 C 51.9 36.0, 51.7 45.6, 50.0 51.0 C 48.3 45.6, 48.1 36.0, 50.0 31.8 Z" fill="url(#l4_r1)"/></g><g transform="rotate(333.3 50.0 50.0)"><path d="M 50.0 31.2 C 51.9 35.6, 51.7 45.5, 50.0 51.0 C 48.3 45.5, 48.1 35.6, 50.0 31.2 Z" fill="url(#l4_r1)"/></g><circle cx="50.0" cy="50.0" r="1.6" fill="#2c624a" opacity="0.8"/>
<circle cx="50" cy="50" r="5.9" fill="#3a2412" opacity="0.5"/>
<circle cx="50" cy="50" r="5.0" fill="url(#l4_bulb)"/>
<circle cx="48.5" cy="48.5" r="1.4" fill="#ffffff" opacity="0.55"/>
</svg>
