<svg xmlns="http://www.w3.org/2000/svg" viewBox="0 0 100 100">
<!-- spruce — generated by scripts/generate_plant_sprites.py (do not hand-edit) -->
<defs><radialGradient id="s6_shadow" cx="50%" cy="50%" r="50%"><stop offset="0%" stop-color="#12300d" stop-opacity="0.28"/><stop offset="62%" stop-color="#12300d" stop-opacity="0.25"/><stop offset="100%" stop-color="#12300d" stop-opacity="0"/></radialGradient><linearGradient id="s6_r0" x1="0" y1="0" x2="0" y2="1"><stop offset="0%" stop-color="#4f9070"/><stop offset="48%" stop-color="#387057"/><stop offset="100%" stop-color="#1d4a38"/></linearGradient><linearGradient id="s6_r1" x1="0" y1="0" x2="0" y2="1"><stop offset="0%" stop-color="#6da888"/><stop offset="48%" stop-color="#4e8569"/><stop offset="100%" stop-color="#275a44"/></linearGradient><linearGradient id="s6_r2" x1="0" y1="0" x2="0" y2="1"><stop offset="0%" stop-color="#8ac0a0"/><stop offset="48%" stop-color="#62997c"/><stop offset="100%" stop-color="#326a50"/></linearGradient><linearGradient id="s6_r3" x1="0" y1="0" x2="0" y2="1"><stop offset="0%" stop-color="#a8d8b8"/><stop offset="48%" stop-color="#77ae8f"/><stop offset="100%" stop-color="#3c7a5c"/></linearGradient></defs>
<circle cx="50" cy="50" r="46.0" fill="url(#s6_shadow)"/>
<circle cx="72.5" cy="50.0" r="14.4" fill="#1d4a38"/><circle cx="65.9" cy="65.9" r="14.4" fill="#1d4a38"/><circle cx="50.0" cy="72.5" r="14.4" fill="#1d4a38"/><circle cx="34.1" cy="65.9" r="14.4" fill="#1d4a38"/><circle cx="27.5" cy="50.0" r="14.4" fill="#1d4a38"/><circle cx="34.1" cy="34.1" r="14.4" fill="#1d4a38"/><circle cx="50.0" cy="27.5" r="14.4" fill="#1d4a38"/><circle cx="65.9" cy="34.1" r="14.4" fill="#1d4a38"/><circle cx="50" cy="50" r="24.5" fill="#285b45"/>
<g transform="rotate(-2.2 50 50)"><path d="M 50.0 4.8 L 53.3 10.8 L 51.8 12.0 L 55.6 16.8 L 53.7 18.0 L 57.9 23.6 L 50.0 24.8 L 42.1 23.6 L 46.3 18.0 L 44.4 16.8 L 48.2 12.0 L 46.7 10.8 Z" fill="#0f2e21" opacity="0.9"/><path d="M 50.0 6.0 L 52.7 11.4 L 51.5 12.5 L 54.6 16.8 L 53.1 17.9 L 56.5 22.9 L 50.0 24.0 L 43.5 22.9 L 46.9 17.9 L 45.4 16.8 L 48.5 12.5 L 47.3 11.4 Z" fill="url(#s6_r0)"/><line x1="50" y1="24.0" x2="50" y2="8.7" stroke="#1e5240" stroke-width="0.7" opacity="0.5"/></g>
<g transform="rotate(25.6 50 50)"><path d="M 50.0 4.8 L 53.3 10.8 L 51.8 12.0 L 55.6 16.8 L 53.7 18.0 L 57.9 23.6 L 50.0 24.8 L 42.1 23.6 L 46.3 18.0 L 44.4 16.8 L 48.2 12.0 L 46.7 10.8 Z" fill="#0f2e21" opacity="0.9"/><path d="M 50.0 6.0 L 52.7 11.4 L 51.5 12.5 L 54.6 16.8 L 53.1 17.9 L 56.5 22.9 L 50.0 24.0 L 43.5 22.9 L 46.9 17.9 L 45.4 16.8 L 48.5 12.5 L 47.3 11.4 Z" fill="url(#s6_r0)"/><line x1="50" y1="24.0" x2="50" y2="8.7" stroke="#1e5240" stroke-width="0.7" opacity="0.5"/></g>
<g transform="rotate(51.0 50 50)"><path d="M 50.0 4.8 L 53.3 10.8 L 51.8 12.0 L 55.6 16.8 L 53.7 18.0 L 57.9 23.6 L 50.0 24.8 L 42.1 23.6 L 46.3 18.0 L 44.4 16.8 L 48.2 12.0 L 46.7 10.8 Z" fill="#0f2e21" opacity="0.9"/><path d="M 50.0 6.0 L 52.7 11.4 L 51.5 12.5 L 54.6 16.8 L 53.1 17.9 L 56.5 22.9 L 50.0 24.0 L 43.5 22.9 L 46.9 17.9 L 45.4 16.8 L 48.5 12.5 L 47.3 11.4 Z" fill="url(#s6_r0)"/><line x1="50" y1="24.0" x2="50" y2="8.7" stroke="#1e5240" stroke-width="0.7" opacity="0.5"/></g>
<g transform="rotate(76.4 50 50)"><path d="M 50.0 4.8 L 53.3 10.8 L 51.8 12.0 L 55.6 16.8 L 53.7 18.0 L 57.9 23.6 L 50.0 24.8 L 42.1 23.6 L 46.3 18.0 L 44.4 16.8 L 48.2 12.0 L 46.7 10.8 Z" fill="#0f2e21" opacity="0.9"/><path d="M 50.0 6.0 L 52.7 11.4 L 51.5 12.5 L 54.6 16.8 L 53.1 17.9 L 56.5 22.9 L 50.0 24.0 L 43.5 22.9 L 46.9 17.9 L 45.4 16.8 L 48.5 12.5 L 47.3 11.4 Z" fill="url(#s6_r0)"/><line x1="50" y1="24.0" x2="50" y2="8.7" stroke="#1e5240" stroke-width="0.7" opacity="0.5"/></g>
<g transform="rotate(103.5 50 50)"><path d="M 50.0 4.8 L 53.3 10.8 L 51.8 12.0 L 55.6 16.8 L 53.7 18.0 L 57.9 23.6 L 50.0 24.8 L 42.1 23.6 L 46.3 18.0 L 44.4 16.8 L 48.2 12.0 L 46.7 10.8 Z" fill="#0f2e21" opacity="0.9"/><path d="M 50.0 6.0 L 52.7 11.4 L 51.5 12.5 L 54.6 16.8 L 53.1 17.9 L 56.5 22.9 L 50.0 24.0 L 43.5 22.9 L 46.9 17.9 L 45.4 16.8 L 48.5 12.5 L 47.3 11.4 Z" fill="url(#s6_r0)"/><line x1="50" y1="24.0" x2="50" y2="8.7" stroke="#1e5240" stroke-width="0.7" opacity="0.5"/></g>
<g transform="rotate(131.0 50 50)"><path d="M 50.0 4.8 L 53.3 10.8 L 51.8 12.0 L 55.6 16.8 L 53.7 18.0 L 57.9 23.6 L 50.0 24.8 L 42.1 23.6 L 46.3 18.0 L 44.4 16.8 L 48.2 12.0 L 46.7 10.8 Z" fill="#0f2e21" opacity="0.9"/><path d="M 50.0 6.0 L 52.7 11.4 L 51.5 12.5 L 54.6 16.8 L 53.1 17.9 L 56.5 22.9 L 50.0 24.0 L 43.5 22.9 L 46.9 17.9 L 45.4 16.8 L 48.5 12.5 L 47.3 11.4 Z" fill="url(#s6_r0)"/><line x1="50" y1="24.0" x2="50" y2="8.7" stroke="#1e5240" stroke-width="0.7" opacity="0.5"/></g>
<g transform="rotate(152.7 50 50)"><path d="M 50.0 4.8 L 53.3 10.8 L 51.8 12.0 L 55.6 16.8 L 53.7 18.0 L 57.9 23.6 L 50.0 24.8 L 42.1 23.6 L 46.3 18.0 L 44.4 16.8 L 48.2 12.0 L 46.7 10.8 Z" fill="#0f2e21" opacity="0.9"/><path d="M 50.0 6.0 L 52.7 11.4 L 51.5 12.5 L 54.6 16.8 L 53.1 17.9 L 56.5 22.9 L 50.0 24.0 L 43.5 22.9 L 46.9 17.9 L 45.4 16.8 L 48.5 12.5 L 47.3 11.4 Z" fill="url(#s6_r0)"/><line x1="50" y1="24.0" x2="50" y2="8.7" stroke="#1e5240" stroke-width="0.7" opacity="0.5"/></g>
<g transform="rotate(178.2 50 50)"><path d="M 50.0 4.8 L 53.3 10.8 L 51.8 12.0 L 55.6 16.8 L 53.7 18.0 L 57.9 23.6 L 50.0 24.8 L 42.1 23.6 L 46.3 18.0 L 44.4 16.8 L 48.2 12.0 L 46.7 10.8 Z" fill="#0f2e21" opacity="0.9"/><path d="M 50.0 6.0 L 52.7 11.4 L 51.5 12.5 L 54.6 16.8 L 53.1 17.9 L 56.5 22.9 L 50.0 24.0 L 43.5 22.9 L 46.9 17.9 L 45.4 16.8 L 48.5 12.5 L 47.3 11.4 Z" fill="url(#s6_r0)"/><line x1="50" y1="24.0" x2="50" y2="8.7" stroke="#1e5240" stroke-width="0.7" opacity="0.5"/></g>
<g transform="rotate(202.9 50 50)"><path d="M 50.0 4.8 L 53.3 10.8 L 51.8 12.0 L 55.6 16.8 L 53.7 18.0 L 57.9 23.6 L 50.0 24.8 L 42.1 23.6 L 46.3 18.0 L 44.4 16.8 L 48.2 12.0 L 46.7 10.8 Z" fill="#0f2e21" opacity="0.9"/><path d="M 50.0 6.0 L 52.7 11.4 L 51.5 12.5 L 54.6 16.8 L 53.1 17.9 L 56.5 22.9 L 50.0 24.0 L 43.5 22.9 L 46.9 17.9 L 45.4 16.8 L 48.5 12.5 L 47.3 11.4 Z" fill="url(#s6_r0)"/><line x1="50" y1="24.0" x2="50" y2="8.7" stroke="#1e5240" stroke-width="0.7" opacity="0.5"/></g>
<g transform="rotate(232.5 50 50)"><path d="M 50.0 4.8 L 53.3 10.8 L 51.8 12.0 L 55.6 16.8 L 53.7 18.0 L 57.9 23.6 L 50.0 24.8 L 42.1 23.6 L 46.3 18.0 L 44.4 16.8 L 48.2 12.0 L 46.7 10.8 Z" fill="#0f2e21" opacity="0.9"/><path d="M 50.0 6.0 L 52.7 11.4 L 51.5 12.5 L 54.6 16.8 L 53.1 17.9 L 56.5 22.9 L 50.0 24.0 L 43.5 22.9 L 46.9 17.9 L 45.4 16.8 L 48.5 12.5 L 47.3 11.4 Z" fill="url(#s6_r0)"/><line x1="50" y1="24.0" x2="50" y2="8.7" stroke="#1e5240" stroke-width="0.7" opacity="0.5"/></g>
<g transform="rotate(259.0 50 50)"><path d="M 50.0 4.8 L 53.3 10.8 L 51.8 12.0 L 55.6 16.8 L 53.7 18.0 L 57.9 23.6 L 50.0 24.8 L 42.1 23.6 L 46.3 18.0 L 44.4 16.8 L 48.2 12.0 L 46.7 10.8 Z" fill="#0f2e21" opacity="0.9"/><path d="M 50.0 6.0 L 52.7 11.4 L 51.5 12.5 L 54.6 16.8 L 53.1 17.9 L 56.5 22.9 L 50.0 24.0 L 43.5 22.9 L 46.9 17.9 L 45.4 16.8 L 48.5 12.5 L 47.3 11.4 Z" fill="url(#s6_r0)"/><line x1="50" y1="24.0" x2="50" y2="8.7" stroke="#1e5240" stroke-width="0.7" opacity="0.5"/></g>
<g transform="rotate(284.5 50 50)"><path d="M 50.0 4.8 L 53.3 10.8 L 51.8 12.0 L 55.6 16.8 L 53.7 18.0 L 57.9 23.6 L 50.0 24.8 L 42.1 23.6 L 46.3 18.0 L 44.4 16.8 L 48.2 12.0 L 46.7 10.8 Z" fill="#0f2e21" opacity="0.9"/><path d="M 50.0 6.0 L 52.7 11.4 L 51.5 12.5 L 54.6 16.8 L 53.1 17.9 L 56.5 22.9 L 50.0 24.0 L 43.5 22.9 L 46.9 17.9 L 45.4 16.8 L 48.5 12.5 L 47.3 11.4 Z" fill="url(#s6_r0)"/><line x1="50" y1="24.0" x2="50" y2="8.7" stroke="#1e5240" stroke-width="0.7" opacity="0.5"/></g>
<g transform="rotate(309.0 50 50)"><path d="M 50.0 4.8 L 53.3 10.8 L 51.8 12.0 L 55.6 16.8 L 53.7 18.0 L 57.9 23.6 L 50.0 24.8 L 42.1 23.6 L 46.3 18.0 L 44.4 16.8 L 48.2 12.0 L 46.7 10.8 Z" fill="#0f2e21" opacity="0.9"/><path d="M 50.0 6.0 L 52.7 11.4 L 51.5 12.5 L 54.6 16.8 L 53.1 17.9 L 56.5 22.9 L 50.0 24.0 L 43.5 22.9 L 46.9 17.9 L 45.4 16.8 L 48.5 12.5 L 47.3 11.4 Z" fill="url(#s6_r0)"/><line x1="50" y1="24.0" x2="50" y2="8.7" stroke="#1e5240" stroke-width="0.7" opacity="0.5"/></g>
<g transform="rotate(331.6 50 50)"><path d="M 50.0 4.8 L 53.3 10.8 L 51.8 12.0 L 55.6 16.8 L 53.7 18.0 L 57.9 23.6 L 50.0 24.8 L 42.1 23.6 L 46.3 18.0 L 44.4 16.8 L 48.2 12.0 L 46.7 10.8 Z" fill="#0f2e21" opacity="0.9"/><path d="M 50.0 6.0 L 52.7 11.4 L 51.5 12.5 L 54.6 16.8 L 53.1 17.9 L 56.5 22.9 L 50.0 24.0 L 43.5 22.9 L 46.9 17.9 L 45.4 16.8 L 48.5 12.5 L 47.3 11.4 Z" fill="url(#s6_r0)"/><line x1="50" y1="24.0" x2="50" y2="8.7" stroke="#1e5240" stroke-width="0.7" opacity="0.5"/></g>
<g transform="rotate(14.2 50 50)"><path d="M 50.0 15.5 L 52.9 20.6 L 51.6 21.6 L 55.0 25.6 L 53.3 26.6 L 57.0 31.3 L 50.0 32.4 L 43.0 31.3 L 46.7 26.6 L 45.0 25.6 L 48.4 21.6 L 47.1 20.6 Z" fill="#0f2e21" opacity="0.9"/><path d="M 50.0 16.7 L 52.4 21.2 L 51.3 22.0 L 54.1 25.6 L 52.7 26.5 L 55.7 30.7 L 50.0 31.6 L 44.3 30.7 L 47.3 26.5 L 45.9 25.6 L 48.7 22.0 L 47.6 21.2 Z" fill="url(#s6_r1)"/><line x1="50" y1="31.6" x2="50" y2="18.9" stroke="#1e5240" stroke-width="0.7" opacity="0.5"/></g>
<g transform="rotate(42.8 50 50)"><path d="M 50.0 15.5 L 52.9 20.6 L 51.6 21.6 L 55.0 25.6 L 53.3 26.6 L 57.0 31.3 L 50.0 32.4 L 43.0 31.3 L 46.7 26.6 L 45.0 25.6 L 48.4 21.6 L 47.1 20.6 Z" fill="#0f2e21" opacity="0.9"/><path d="M 50.0 16.7 L 52.4 21.2 L 51.3 22.0 L 54.1 25.6 L 52.7 26.5 L 55.7 30.7 L 50.0 31.6 L 44.3 30.7 L 47.3 26.5 L 45.9 25.6 L 48.7 22.0 L 47.6 21.2 Z" fill="url(#s6_r1)"/><line x1="50" y1="31.6" x2="50" y2="18.9" stroke="#1e5240" stroke-width="0.7" opacity="0.5"/></g>
<g transform="rotate(77.8 50 50)"><path d="M 50.0 15.5 L 52.9 20.6 L 51.6 21.6 L 55.0 25.6 L 53.3 26.6 L 57.0 31.3 L 50.0 32.4 L 43.0 31.3 L 46.7 26.6 L 45.0 25.6 L 48.4 21.6 L 47.1 20.6 Z" fill="#0f2e21" opacity="0.9"/><path d="M 50.0 16.7 L 52.4 21.2 L 51.3 22.0 L 54.1 25.6 L 52.7 26.5 L 55.7 30.7 L 50.0 31.6 L 44.3 30.7 L 47.3 26.5 L 45.9 25.6 L 48.7 22.0 L 47.6 21.2 Z" fill="url(#s6_r1)"/><line x1="50" y1="31.6" x2="50" y2="18.9" stroke="#1e5240" stroke-width="0.7" opacity="0.5"/></g>
<g transform="rotate(103.8 50 50)"><path d="M 50.0 15.5 L 52.9 20.6 L 51.6 21.6 L 55.0 25.6 L 53.3 26.6 L 57.0 31.3 L 50.0 32.4 L 43.0 31.3 L 46.7 26.6 L 45.0 25.6 L 48.4 21.6 L 47.1 20.6 Z" fill="#0f2e21" opacity="0.9"/><path d="M 50.0 16.7 L 52.4 21.2 L 51.3 22.0 L 54.1 25.6 L 52.7 26.5 L 55.7 30.7 L 50.0 31.6 L 44.3 30.7 L 47.3 26.5 L 45.9 25.6 L 48.7 22.0 L 47.6 21.2 Z" fill="url(#s6_r1)"/><line x1="50" y1="31.6" x2="50" y2="18.9" stroke="#1e5240" stroke-width="0.7" opacity="0.5"/></g>
<g transform="rotate(137.8 50 50)"><path d="M 50.0 15.5 L 52.9 20.6 L 51.6 21.6 L 55.0 25.6 L 53.3 26.6 L 57.0 31.3 L 50.0 32.4 L 43.0 31.3 L 46.7 26.6 L 45.0 25.6 L 48.4 21.6 L 47.1 20.6 Z" fill="#0f2e21" opacity="0.9"/><path d="M 50.0 16.7 L 52.4 21.2 L 51.3 22.0 L 54.1 25.6 L 52.7 26.5 L 55.7 30.7 L 50.0 31.6 L 44.3 30.7 L 47.3 26.5 L 45.9 25.6 L 48.7 22.0 L 47.6 21.2 Z" fill="url(#s6_r1)"/><line x1="50" y1="31.6" x2="50" y2="18.9" stroke="#1e5240" stroke-width="0.7" opacity="0.5"/></g>
<g transform="rotate(165.0 50 50)"><path d="M 50.0 15.5 L 52.9 20.6 L 51.6 21.6 L 55.0 25.6 L 53.3 26.6 L 57.0 31.3 L 50.0 32.4 L 43.0 31.3 L 46.7 26.6 L 45.0 25.6 L 48.4 21.6 L 47.1 20.6 Z" fill="#0f2e21" opacity="0.9"/><path d="M 50.0 16.7 L 52.4 21.2 L 51.3 22.0 L 54.1 25.6 L 52.7 26.5 L 55.7 30.7 L 50.0 31.6 L 44.3 30.7 L 47.3 26.5 L 45.9 25.6 L 48.7 22.0 L 47.6 21.2 Z" fill="url(#s6_r1)"/><line x1="50" y1="31.6" x2="50" y2="18.9" stroke="#1e5240" stroke-width="0.7" opacity="0.5"/></g>
<g transform="rotate(194.0 50 50)"><path d="M 50.0 15.5 L 52.9 20.6 L 51.6 21.6 L 55.0 25.6 L 53.3 26.6 L 57.0 31.3 L 50.0 32.4 L 43.0 31.3 L 46.7 26.6 L 45.0 25.6 L 48.4 21.6 L 47.1 20.6 Z" fill="#0f2e21" opacity="0.9"/><path d="M 50.0 16.7 L 52.4 21.2 L 51.3 22.0 L 54.1 25.6 L 52.7 26.5 L 55.7 30.7 L 50.0 31.6 L 44.3 30.7 L 47.3 26.5 L 45.9 25.6 L 48.7 22.0 L 47.6 21.2 Z" fill="url(#s6_r1)"/><line x1="50" y1="31.6" x2="50" y2="18.9" stroke="#1e5240" stroke-width="0.7" opacity="0.5"/></g>
<g transform="rotate(225.3 50 50)"><path d="M 50.0 15.5 L 52.9 20.6 L 51.6 21.6 L 55.0 25.6 L 53.3 26.6 L 57.0 31.3 L 50.0 32.4 L 43.0 31.3 L 46.7 26.6 L 45.0 25.6 L 48.4 21.6 L 47.1 20.6 Z" fill="#0f2e21" opacity="0.9"/><path d="M 50.0 16.7 L 52.4 21.2 L 51.3 22.0 L 54.1 25.6 L 52.7 26.5 L 55.7 30.7 L 50.0 31.6 L 44.3 30.7 L 47.3 26.5 L 45.9 25.6 L 48.7 22.0 L 47.6 21.2 Z" fill="url(#s6_r1)"/><line x1="50" y1="31.6" x2="50" y2="18.9" stroke="#1e5240" stroke-width="0.7" opacity="0.5"/></g>
<g transform="rotate(254.3 50 50)"><path d="M 50.0 15.5 L 52.9 20.6 L 51.6 21.6 L 55.0 25.6 L 53.3 26.6 L 57.0 31.3 L 50.0 32.4 L 43.0 31.3 L 46.7 26.6 L 45.0 25.6 L 48.4 21.6 L 47.1 20.6 Z" fill="#0f2e21" opacity="0.9"/><path d="M 50.0 16.7 L 52.4 21.2 L 51.3 22.0 L 54.1 25.6 L 52.7 26.5 L 55.7 30.7 L 50.0 31.6 L 44.3 30.7 L 47.3 26.5 L 45.9 25.6 L 48.7 22.0 L 47.6 21.2 Z" fill="url(#s6_r1)"/><line x1="50" y1="31.6" x2="50" y2="18.9" stroke="#1e5240" stroke-width="0.7" opacity="0.5"/></g>
<g transform="rotate(283.7 50 50)"><path d="M 50.0 15.5 L 52.9 20.6 L 51.6 21.6 L 55.0 25.6 L 53.3 26.6 L 57.0 31.3 L 50.0 32.4 L 43.0 31.3 L 46.7 26.6 L 45.0 25.6 L 48.4 21.6 L 47.1 20.6 Z" fill="#0f2e21" opacity="0.9"/><path d="M 50.0 16.7 L 52.4 21.2 L 51.3 22.0 L 54.1 25.6 L 52.7 26.5 L 55.7 30.7 L 50.0 31.6 L 44.3 30.7 L 47.3 26.5 L 45.9 25.6 L 48.7 22.0 L 47.6 21.2 Z" fill="url(#s6_r1)"/><line x1="50" y1="31.6" x2="50" y2="18.9" stroke="#1e5240" stroke-width="0.7" opacity="0.5"/></g>
<g transform="rotate(315.6 50 50)"><path d="M 50.0 15.5 L 52.9 20.6 L 51.6 21.6 L 55.0 25.6 L 53.3 26.6 L 57.0 31.3 L 50.0 32.4 L 43.0 31.3 L 46.7 26.6 L 45.0 25.6 L 48.4 21.6 L 47.1 20.6 Z" fill="#0f2e21" opacity="0.9"/><path d="M 50.0 16.7 L 52.4 21.2 L 51.3 22.0 L 54.1 25.6 L 52.7 26.5 L 55.7 30.7 L 50.0 31.6 L 44.3 30.7 L 47.3 26.5 L 45.9 25.6 L 48.7 22.0 L 47.6 21.2 Z" fill="url(#s6_r1)"/><line x1="50" y1="31.6" x2="50" y2="18.9" stroke="#1e5240" stroke-width="0.7" opacity="0.5"/></g>
<g transform="rotate(345.3 50 50)"><path d="M 50.0 15.5 L 52.9 20.6 L 51.6 21.6 L 55.0 25.6 L 53.3 26.6 L 57.0 31.3 L 50.0 32.4 L 43.0 31.3 L 46.7 26.6 L 45.0 25.6 L 48.4 21.6 L 47.1 20.6 Z" fill="#0f2e21" opacity="0.9"/><path d="M 50.0 16.7 L 52.4 21.2 L 51.3 22.0 L 54.1 25.6 L 52.7 26.5 L 55.7 30.7 L 50.0 31.6 L 44.3 30.7 L 47.3 26.5 L 45.9 25.6 L 48.7 22.0 L 47.6 21.2 Z" fill="url(#s6_r1)"/><line x1="50" y1="31.6" x2="50" y2="18.9" stroke="#1e5240" stroke-width="0.7" opacity="0.5"/></g>
<g transform="rotate(34.5 50 50)"><path d="M 50.0 25.4 L 52.5 29.5 L 51.4 30.3 L 54.3 33.6 L 52.9 34.4 L 56.0 38.3 L 50.0 39.1 L 44.0 38.3 L 47.1 34.4 L 45.7 33.6 L 48.6 30.3 L 47.5 29.5 Z" fill="#0f2e21" opacity="0.9"/><path d="M 50.0 26.6 L 52.1 30.1 L 51.1 30.8 L 53.5 33.6 L 52.3 34.3 L 54.9 37.6 L 50.0 38.3 L 45.1 37.6 L 47.7 34.3 L 46.5 33.6 L 48.9 30.8 L 47.9 30.1 Z" fill="url(#s6_r2)"/><line x1="50" y1="38.3" x2="50" y2="28.4" stroke="#1e5240" stroke-width="0.7" opacity="0.5"/></g>
<g transform="rotate(73.0 50 50)"><path d="M 50.0 25.4 L 52.5 29.5 L 51.4 30.3 L 54.3 33.6 L 52.9 34.4 L 56.0 38.3 L 50.0 39.1 L 44.0 38.3 L 47.1 34.4 L 45.7 33.6 L 48.6 30.3 L 47.5 29.5 Z" fill="#0f2e21" opacity="0.9"/><path d="M 50.0 26.6 L 52.1 30.1 L 51.1 30.8 L 53.5 33.6 L 52.3 34.3 L 54.9 37.6 L 50.0 38.3 L 45.1 37.6 L 47.7 34.3 L 46.5 33.6 L 48.9 30.8 L 47.9 30.1 Z" fill="url(#s6_r2)"/><line x1="50" y1="38.3" x2="50" y2="28.4" stroke="#1e5240" stroke-width="0.7" opacity="0.5"/></g>
<g transform="rotate(109.6 50 50)"><path d="M 50.0 25.4 L 52.5 29.5 L 51.4 30.3 L 54.3 33.6 L 52.9 34.4 L 56.0 38.3 L 50.0 39.1 L 44.0 38.3 L 47.1 34.4 L 45.7 33.6 L 48.6 30.3 L 47.5 29.5 Z" fill="#0f2e21" opacity="0.9"/><path d="M 50.0 26.6 L 52.1 30.1 L 51.1 30.8 L 53.5 33.6 L 52.3 34.3 L 54.9 37.6 L 50.0 38.3 L 45.1 37.6 L 47.7 34.3 L 46.5 33.6 L 48.9 30.8 L 47.9 30.1 Z" fill="url(#s6_r2)"/><line x1="50" y1="38.3" x2="50" y2="28.4" stroke="#1e5240" stroke-width="0.7" opacity="0.5"/></g>
<g transform="rotate(146.3 50 50)"><path d="M 50.0 25.4 L 52.5 29.5 L 51.4 30.3 L 54.3 33.6 L 52.9 34.4 L 56.0 38.3 L 50.0 39.1 L 44.0 38.3 L 47.1 34.4 L 45.7 33.6 L 48.6 30.3 L 47.5 29.5 Z" fill="#0f2e21" opacity="0.9"/><path d="M 50.0 26.6 L 52.1 30.1 L 51.1 30.8 L 53.5 33.6 L 52.3 34.3 L 54.9 37.6 L 50.0 38.3 L 45.1 37.6 L 47.7 34.3 L 46.5 33.6 L 48.9 30.8 L 47.9 30.1 Z" fill="url(#s6_r2)"/><line x1="50" y1="38.3" x2="50" y2="28.4" stroke="#1e5240" stroke-width="0.7" opacity="0.5"/></g>
<g transform="rotate(179.2 50 50)"><path d="M 50.0 25.4 L 52.5 29.5 L 51.4 30.3 L 54.3 33.6 L 52.9 34.4 L 56.0 38.3 L 50.0 39.1 L 44.0 38.3 L 47.1 34.4 L 45.7 33.6 L 48.6 30.3 L 47.5 29.5 Z" fill="#0f2e21" opacity="0.9"/><path d="M 50.0 26.6 L 52.1 30.1 L 51.1 30.8 L 53.5 33.6 L 52.3 34.3 L 54.9 37.6 L 50.0 38.3 L 45.1 37.6 L 47.7 34.3 L 46.5 33.6 L 48.9 30.8 L 47.9 30.1 Z" fill="url(#s6_r2)"/><line x1="50" y1="38.3" x2="50" y2="28.4" stroke="#1e5240" stroke-width="0.7" opacity="0.5"/></g>
<g transform="rotate(218.5 50 50)"><path d="M 50.0 25.4 L 52.5 29.5 L 51.4 30.3 L 54.3 33.6 L 52.9 34.4 L 56.0 38.3 L 50.0 39.1 L 44.0 38.3 L 47.1 34.4 L 45.7 33.6 L 48.6 30.3 L 47.5 29.5 Z" fill="#0f2e21" opacity="0.9"/><path d="M 50.0 26.6 L 52.1 30.1 L 51.1 30.8 L 53.5 33.6 L 52.3 34.3 L 54.9 37.6 L 50.0 38.3 L 45.1 37.6 L 47.7 34.3 L 46.5 33.6 L 48.9 30.8 L 47.9 30.1 Z" fill="url(#s6_r2)"/><line x1="50" y1="38.3" x2="50" y2="28.4" stroke="#1e5240" stroke-width="0.7" opacity="0.5"/></g>
<g transform="rotate(251.1 50 50)"><path d="M 50.0 25.4 L 52.5 29.5 L 51.4 30.3 L 54.3 33.6 L 52.9 34.4 L 56.0 38.3 L 50.0 39.1 L 44.0 38.3 L 47.1 34.4 L 45.7 33.6 L 48.6 30.3 L 47.5 29.5 Z" fill="#0f2e21" opacity="0.9"/><path d="M 50.0 26.6 L 52.1 30.1 L 51.1 30.8 L 53.5 33.6 L 52.3 34.3 L 54.9 37.6 L 50.0 38.3 L 45.1 37.6 L 47.7 34.3 L 46.5 33.6 L 48.9 30.8 L 47.9 30.1 Z" fill="url(#s6_r2)"/><line x1="50" y1="38.3" x2="50" y2="28.4" stroke="#1e5240" stroke-width="0.7" opacity="0.5"/></g>
<g transform="rotate(289.6 50 50)"><path d="M 50.0 25.4 L 52.5 29.5 L 51.4 30.3 L 54.3 33.6 L 52.9 34.4 L 56.0 38.3 L 50.0 39.1 L 44.0 38.3 L 47.1 34.4 L 45.7 33.6 L 48.6 30.3 L 47.5 29.5 Z" fill="#0f2e21" opacity="0.9"/><path d="M 50.0 26.6 L 52.1 30.1 L 51.1 30.8 L 53.5 33.6 L 52.3 34.3 L 54.9 37.6 L 50.0 38.3 L 45.1 37.6 L 47.7 34.3 L 46.5 33.6 L 48.9 30.8 L 47.9 30.1 Z" fill="url(#s6_r2)"/><line x1="50" y1="38.3" x2="50" y2="28.4" stroke="#1e5240" stroke-width="0.7" opacity="0.5"/></g>
<g transform="rotate(324.8 50 50)"><path d="M 50.0 25.4 L 52.5 29.5 L 51.4 30.3 L 54.3 33.6 L 52.9 34.4 L 56.0 38.3 L 50.0 39.1 L 44.0 38.3 L 47.1 34.4 L 45.7 33.6 L 48.6 30.3 L 47.5 29.5 Z" fill="#0f2e21" opacity="0.9"/><path d="M 50.0 26.6 L 52.1 30.1 L 51.1 30.8 L 53.5 33.6 L 52.3 34.3 L 54.9 37.6 L 50.0 38.3 L 45.1 37.6 L 47.7 34.3 L 46.5 33.6 L 48.9 30.8 L 47.9 30.1 Z" fill="url(#s6_r2)"/><line x1="50" y1="38.3" x2="50" y2="28.4" stroke="#1e5240" stroke-width="0.7" opacity="0.5"/></g>
<g transform="rotate(362.1 50 50)"><path d="M 50.0 25.4 L 52.5 29.5 L 51.4 30.3 L 54.3 33.6 L 52.9 34.4 L 56.0 38.3 L 50.0 39.1 L 44.0 38.3 L 47.1 34.4 L 45.7 33.6 L 48.6 30.3 L 47.5 29.5 Z" fill="#0f2e21" opacity="0.9"/><path d="M 50.0 26.6 L 52.1 30.1 L 51.1 30.8 L 53.5 33.6 L 52.3 34.3 L 54.9 37.6 L 50.0 38.3 L 45.1 37.6 L 47.7 34.3 L 46.5 33.6 L 48.9 30.8 L 47.9 30.1 Z" fill="url(#s6_r2)"/><line x1="50" y1="38.3" x2="50" y2="28.4" stroke="#1e5240" stroke-width="0.7" opacity="0.5"/></g>
<g transform="rotate(70.4 50 50)"><path d="M 50.0 34.4 L 52.1 37.6 L 51.2 38.2 L 53.7 40.7 L 52.4 41.4 L 55.1 44.3 L 50.0 44.9 L 44.9 44.3 L 47.6 41.4 L 46.3 40.7 L 48.8 38.2 L 47.9 37.6 Z" fill="#0f2e21" opacity="0.9"/><path d="M 50.0 35.6 L 51.8 38.2 L 51.0 38.7 L 53.0 40.7 L 52.0 41.2 L 54.2 43.6 L 50.0 44.1 L 45.8 43.6 L 48.0 41.2 L 47.0 40.7 L 49.0 38.7 L 48.2 38.2 Z" fill="url(#s6_r3)"/><line x1="50" y1="44.1" x2="50" y2="36.9" stroke="#1e5240" stroke-width="0.7" opacity="0.5"/></g>
<g transform="rotate(109.6 50 50)"><path d="M 50.0 34.4 L 52.1 37.6 L 51.2 38.2 L 53.7 40.7 L 52.4 41.4 L 55.1 44.3 L 50.0 44.9 L 44.9 44.3 L 47.6 41.4 L 46.3 40.7 L 48.8 38.2 L 47.9 37.6 Z" fill="#0f2e21" opacity="0.9"/><path d="M 50.0 35.6 L 51.8 38.2 L 51.0 38.7 L 53.0 40.7 L 52.0 41.2 L 54.2 43.6 L 50.0 44.1 L 45.8 43.6 L 48.0 41.2 L 47.0 40.7 L 49.0 38.7 L 48.2 38.2 Z" fill="url(#s6_r3)"/><line x1="50" y1="44.1" x2="50" y2="36.9" stroke="#1e5240" stroke-width="0.7" opacity="0.5"/></g>
<g transform="rotate(159.7 50 50)"><path d="M 50.0 34.4 L 52.1 37.6 L 51.2 38.2 L 53.7 40.7 L 52.4 41.4 L 55.1 44.3 L 50.0 44.9 L 44.9 44.3 L 47.6 41.4 L 46.3 40.7 L 48.8 38.2 L 47.9 37.6 Z" fill="#0f2e21" opacity="0.9"/><path d="M 50.0 35.6 L 51.8 38.2 L 51.0 38.7 L 53.0 40.7 L 52.0 41.2 L 54.2 43.6 L 50.0 44.1 L 45.8 43.6 L 48.0 41.2 L 47.0 40.7 L 49.0 38.7 L 48.2 38.2 Z" fill="url(#s6_r3)"/><line x1="50" y1="44.1" x2="50" y2="36.9" stroke="#1e5240" stroke-width="0.7" opacity="0.5"/></g>
<g transform="rotate(199.9 50 50)"><path d="M 50.0 34.4 L 52.1 37.6 L 51.2 38.2 L 53.7 40.7 L 52.4 41.4 L 55.1 44.3 L 50.0 44.9 L 44.9 44.3 L 47.6 41.4 L 46.3 40.7 L 48.8 38.2 L 47.9 37.6 Z" fill="#0f2e21" opacity="0.9"/><path d="M 50.0 35.6 L 51.8 38.2 L 51.0 38.7 L 53.0 40.7 L 52.0 41.2 L 54.2 43.6 L 50.0 44.1 L 45.8 43.6 L 48.0 41.2 L 47.0 40.7 L 49.0 38.7 L 48.2 38.2 Z" fill="url(#s6_r3)"/><line x1="50" y1="44.1" x2="50" y2="36.9" stroke="#1e5240" stroke-width="0.7" opacity="0.5"/></g>
<g transform="rotate(246.5 50 50)"><path d="M 50.0 34.4 L 52.1 37.6 L 51.2 38.2 L 53.7 40.7 L 52.4 41.4 L 55.1 44.3 L 50.0 44.9 L 44.9 44.3 L 47.6 41.4 L 46.3 40.7 L 48.8 38.2 L 47.9 37.6 Z" fill="#0f2e21" opacity="0.9"/><path d="M 50.0 35.6 L 51.8 38.2 L 51.0 38.7 L 53.0 40.7 L 52.0 41.2 L 54.2 43.6 L 50.0 44.1 L 45.8 43.6 L 48.0 41.2 L 47.0 40.7 L 49.0 38.7 L 48.2 38.2 Z" fill="url(#s6_r3)"/><line x1="50" y1="44.1" x2="50" y2="36.9" stroke="#1e5240" stroke-width="0.7" opacity="0.5"/></g>
<g transform="rotate(291.8 50 50)"><path d="M 50.0 34.4 L 52.1 37.6 L 51.2 38.2 L 53.7 40.7 L 52.4 41.4 L 55.1 44.3 L 50.0 44.9 L 44.9 44.3 L 47.6 41.4 L 46.3 40.7 L 48.8 38.2 L 47.9 37.6 Z" fill="#0f2e21" opacity="0.9"/><path d="M 50.0 35.6 L 51.8 38.2 L 51.0 38.7 L 53.0 40.7 L 52.0 41.2 L 54.2 43.6 L 50.0 44.1 L 45.8 43.6 L 48.0 41.2 L 47.0 40.7 L 49.0 38.7 L 48.2 38.2 Z" fill="url(#s6_r3)"/><line x1="50" y1="44.1" x2="50" y2="36.9" stroke="#1e5240" stroke-width="0.7" opacity="0.5"/></g>
<g transform="rotate(339.0 50 50)"><path d="M 50.0 34.4 L 52.1 37.6 L 51.2 38.2 L 53.7 40.7 L 52.4 41.4 L 55.1 44.3 L 50.0 44.9 L 44.9 44.3 L 47.6 41.4 L 46.3 40.7 L 48.8 38.2 L 47.9 37.6 Z" fill="#0f2e21" opacity="0.9"/><path d="M 50.0 35.6 L 51.8 38.2 L 51.0 38.7 L 53.0 40.7 L 52.0 41.2 L 54.2 43.6 L 50.0 44.1 L 45.8 43.6 L 48.0 41.2 L 47.0 40.7 L 49.0 38.7 L 48.2 38.2 Z" fill="url(#s6_r3)"/><line x1="50" y1="44.1" x2="50" y2="36.9" stroke="#1e5240" stroke-width="0.7" opacity="0.5"/></g>
<g transform="rotate(382.9 50 50)"><path d="M 50.0 34.4 L 52.1 37.6 L 51.2 38.2 L 53.7 40.7 L 52.4 41.4 L 55.1 44.3 L 50.0 44.9 L 44.9 44.3 L 47.6 41.4 L 46.3 40.7 L 48.8 38.2 L 47.9 37.6 Z" fill="#0f2e21" opacity="0.9"/><path d="M 50.0 35.6 L 51.8 38.2 L 51.0 38.7 L 53.0 40.7 L 52.0 41.2 L 54.2 43.6 L 50.0 44.1 L 45.8 43.6 L 48.0 41.2 L 47.0 40.7 L 49.0 38.7 L 48.2 38.2 Z" fill="url(#s6_r3)"/><line x1="50" y1="44.1" x2="50" y2="36.9" stroke="#1e5240" stroke-width="0.7" opacity="0.5"/></g>
<circle cx="50" cy="50" r="5.9" fill="#7db293"/>
<circle cx="50" cy="50" r="2.5" fill="#cff7dc"/>
</svg>
